<svg xmlns="http://www.w3.org/2000/svg" xmlns:xlink="http://www.w3.org/1999/xlink" width="1128.6" height="586.03" viewBox="0 0 1128.6 586.03"><defs><style>.a{fill:url(#a);}.b{fill:#808184;}.ac,.ad,.af,.ag,.ah,.ai,.aj,.ak,.c,.d,.e,.f,.g,.x,.y,.z{fill:none;}.c,.u{stroke:#808184;}.aa,.ac,.ad,.ae,.af,.ag,.ah,.ai,.aj,.ak,.am,.c,.d,.e,.f,.g,.i,.j,.k,.l,.m,.n,.o,.p,.q,.r,.s,.u,.v{stroke-miterlimit:10;}.c{stroke-width:12.5px;}.d,.n,.o{stroke:#ffd100;}.d{stroke-width:37px;}.e,.k,.l,.m,.r,.s{stroke:#cf8a00;}.e,.f{stroke-width:24px;}.aj,.f,.j,.p,.q{stroke:#5b7e96;}.g,.i,.x,.y,.z{stroke:#929497;}.g{stroke-width:16px;}.h,.i,.l,.n,.p,.r{fill:#fff;}.i{stroke-width:4.13px;}.j{fill:#dce3e8;}.j,.v{stroke-width:4px;}.k{fill:#fae6cd;stroke-width:3.28px;}.l,.m,.n,.o{stroke-width:1.64px;}.m,.s{fill:#cf8a00;}.o{fill:#ffd100;}.p,.q,.r,.s{stroke-width:2.02px;}.am,.q{fill:#5b7e96;}.t{fill:#58595b;}.an,.u{fill:#e6e7e8;}.u{stroke-width:3px;}.ae,.v{fill:#cedfc1;}.aa,.ac,.ad,.ae,.af,.ag,.ah,.ai,.v{stroke:#5e9732;}.w{fill:#f1f1f2;}.x,.y,.z{stroke-linejoin:round;}.aa,.ae,.ai,.x,.y,.z{stroke-width:2px;}.y{stroke-dasharray:12.61 3.15;}.z{stroke-dasharray:11.48 2.87;}.aa,.ab{fill:#d0d2d3;}.ac{stroke-dasharray:10.52;}.af{stroke-dasharray:14.46 3.61;}.ag{stroke-dasharray:14.46 3.61;}.ah{stroke-dasharray:9.93;}.aj,.ak{stroke-dasharray:10 3;}.ak{stroke:#58595b;}.al{fill:#6d6e70;}.am{stroke:#a6a8ab;stroke-width:0.75px;}</style><linearGradient id="a" x1="578.99" y1="533.28" x2="578.99" y2="11.16" gradientUnits="userSpaceOnUse"><stop offset="0" stop-color="#d0d2d3"/><stop offset="1" stop-color="#f1f1f2"/></linearGradient></defs><path class="a" d="M349.22,533.28V494.9H333v38.38H287.46V483.71a12.37,12.37,0,0,0-24.74,0v26.4H232.67V471H73.36V11.16H1084.61V469.73L742.18,471c-7.32,0-11.66,2.87-14,5.27a16.48,16.48,0,0,0-4.63,11.61c0,7.52,5,15.51,14.29,15.51h15.64v7.35l-5.16,8.18H702.71V500.15a10.93,10.93,0,1,0-21.85,0v33.13Z"/><path class="b" d="M1080.86,14.91V466L742.2,467.26c-8.64,0-13.86,3.48-16.72,6.4a20.18,20.18,0,0,0-5.7,14.23c0,10.8,7.92,19.26,18,19.26h11.89v2.52l-3.48,5.51H706.46v-15a14.68,14.68,0,1,0-29.35,0v29.38H353V491.15H329.29v38.38H291.21V483.71a16.12,16.12,0,0,0-32.24,0v22.65H236.43v-39.1H77.11V14.91H1080.86m7.5-7.5H69.61V474.76H228.92v39.1h37.55V483.71a8.62,8.62,0,0,1,17.24,0V537h53.08V498.65h8.68V537H684.61V500.15a7.18,7.18,0,1,1,14.35,0v22.53h51.41l6.84-10.85V499.65H737.82c-13.79,0-15.71-24.89,4.38-24.89l346.16-1.29V7.41Z"/><path class="c" d="M0,36H40.55c8.52,0,13.33,7.41,13.33,18.2V586"/><line class="d" x1="524.48" y1="537.04" x2="524.48" y2="409.91"/><polyline class="e" points="646.78 248.9 967.15 248.9 981.87 260.97 1032.1 260.97"/><line class="e" x1="646.78" y1="301.92" x2="847.35" y2="301.92"/><line class="e" x1="646.78" y1="358.44" x2="847.35" y2="358.44"/><polyline class="e" points="646.78 213.7 967.15 213.7 980.78 202.82 1032.1 202.82"/><polyline class="f" points="153.7 209.35 239.77 209.52 259.86 229.61 408.3 229.61"/><polyline class="f" points="153.7 409.81 238.69 409.81 259.86 388.64 408.3 388.64"/><line class="f" x1="153.7" y1="277.08" x2="408.3" y2="277.08"/><line class="f" x1="153.7" y1="343.45" x2="408.3" y2="343.45"/><polyline class="g" points="622.07 409.91 622.07 432.15 760.95 432.15"/><polyline class="g" points="622.07 177.55 622.07 135.38 760.95 135.38"/><rect class="h" x="407.45" y="176.75" width="234.33" height="234.33"/><path class="b" d="M636.78,181.75V406.07H412.45V181.75H636.78m10-10H402.45V416.07H646.78V171.75Z"/><rect class="i" x="737.95" y="114.06" width="241.2" height="42.64"/><rect class="j" x="2.99" y="184.89" width="150.71" height="48.91"/><rect class="j" x="2.99" y="252.63" width="150.71" height="48.91"/><rect class="j" x="2.99" y="318.99" width="150.71" height="48.91"/><rect class="j" x="2.99" y="385.36" width="150.71" height="48.91"/><rect class="k" x="1059.84" y="212.93" width="39.39" height="94.86" transform="translate(819.17 1339.9) rotate(-90)"/><rect class="k" x="875.08" y="253.35" width="39.39" height="94.86" transform="translate(594 1195.56) rotate(-90)"/><rect class="k" x="875.08" y="310.96" width="39.39" height="94.86" transform="translate(536.39 1253.17) rotate(-90)"/><rect class="i" x="736.95" y="410.83" width="241.2" height="42.64"/><rect class="k" x="1059.84" y="155.32" width="39.39" height="94.86" transform="translate(876.78 1282.28) rotate(-90)"/><rect class="l" x="596.79" y="209.96" width="37.39" height="15.21"/><rect class="m" x="596.79" y="196.82" width="37.39" height="13.14"/><path d="M606.45,213.61a12.57,12.57,0,0,1,2-.15,3.34,3.34,0,0,1,2.27.67,2.17,2.17,0,0,1,.7,1.69,2.38,2.38,0,0,1-.62,1.73,3.37,3.37,0,0,1-2.47.88,3.61,3.61,0,0,1-.84-.07v3.24h-1Zm1,3.9a3.54,3.54,0,0,0,.86.08c1.26,0,2-.61,2-1.72s-.75-1.59-1.91-1.59a4.17,4.17,0,0,0-1,.09Z"/><path d="M618.18,221.34a5.2,5.2,0,0,1-2.13.38,3.78,3.78,0,0,1-4-4.09,4,4,0,0,1,4.22-4.25,4.37,4.37,0,0,1,1.92.36l-.25.86a3.69,3.69,0,0,0-1.63-.34,3,3,0,0,0-3.16,3.33,2.94,2.94,0,0,0,3.11,3.25,4.22,4.22,0,0,0,1.7-.33Z"/><path d="M620.23,213.52v8.08h-1v-8.08Z"/><path d="M622.31,218.89a1.85,1.85,0,0,0,2,2,3.8,3.8,0,0,0,1.61-.3l.18.76a4.67,4.67,0,0,1-1.93.36,2.7,2.7,0,0,1-2.86-2.93c0-1.75,1-3.13,2.73-3.13a2.46,2.46,0,0,1,2.39,2.74,4.88,4.88,0,0,1,0,.49Zm3.09-.76a1.49,1.49,0,0,0-1.46-1.71,1.75,1.75,0,0,0-1.62,1.71Z"/><path class="h" d="M602.13,198.61v3.79h1.92v-3.79h1.83v9.44h-1.83v-4h-1.92v4h-1.84v-9.44Z"/><path class="h" d="M610.05,208.05l-.1-.67h0a1.8,1.8,0,0,1-1.52.79,1.9,1.9,0,0,1-1.8-2.09c0-1.79,1.58-2.54,3.13-2.55v-.15a.87.87,0,0,0-1-.93,2.55,2.55,0,0,0-1.4.39l-.34-1.23a4.53,4.53,0,0,1,2.13-.52c2.09,0,2.42,1.46,2.42,2.85v2.55a8.52,8.52,0,0,0,.12,1.56Zm-.25-3.33c-.62,0-1.46.21-1.46,1.16,0,.69.38.94.66.94a.8.8,0,0,0,.76-.59,1.08,1.08,0,0,0,0-.32Z"/><path class="h" d="M612.53,203.26c0-.68,0-1.42-.06-2.06h1.6l.1,1h0a1.59,1.59,0,0,1,1.36-1.11,1.43,1.43,0,0,1,.39,0v1.82a1.54,1.54,0,0,0-.39,0,1.23,1.23,0,0,0-1.12,1,3,3,0,0,0-.07.69v3.47h-1.85Z"/><path class="h" d="M621.23,198.36V206c0,.66,0,1.4,0,2H619.7l-.1-.77h0a1.67,1.67,0,0,1-1.43.89c-1.45,0-2.12-1.61-2.12-3.53,0-2.39,1-3.55,2.19-3.55a1.16,1.16,0,0,1,1.15.69h0v-3.42Zm-1.84,5.48c0-.13,0-.27,0-.41-.07-.42-.3-.8-.66-.8-.65,0-.88.94-.88,2.05,0,1.3.35,2,.86,2,.23,0,.5-.13.64-.61a1.17,1.17,0,0,0,0-.41Z"/><path class="h" d="M626,198.61v9.44h-1.83v-9.44Z"/><path class="h" d="M627.33,198.75a9.79,9.79,0,0,1,1.92-.18,3.59,3.59,0,0,1,2.56.73,2.71,2.71,0,0,1,.81,2.07,3.16,3.16,0,0,1-.8,2.27,3.28,3.28,0,0,1-2.29.9h-.37v3.51h-1.83Zm1.83,4.29a.92.92,0,0,0,.3,0c.92,0,1.34-.66,1.34-1.54s-.33-1.47-1.19-1.47a1.18,1.18,0,0,0-.45.07Z"/><rect class="l" x="596.79" y="245.16" width="37.39" height="15.21"/><rect class="m" x="596.79" y="233.38" width="37.39" height="11.78"/><path d="M606.45,248.81a12.57,12.57,0,0,1,2-.15,3.34,3.34,0,0,1,2.27.67,2.17,2.17,0,0,1,.7,1.69,2.38,2.38,0,0,1-.62,1.73,3.34,3.34,0,0,1-2.47.89,3.58,3.58,0,0,1-.84-.08v3.24h-1Zm1,3.9a3.49,3.49,0,0,0,.86.09c1.26,0,2-.62,2-1.73s-.75-1.58-1.91-1.58a4.32,4.32,0,0,0-1,.08Z"/><path d="M618.18,256.54a5.2,5.2,0,0,1-2.13.38,3.78,3.78,0,0,1-4-4.09,4,4,0,0,1,4.22-4.24,4.22,4.22,0,0,1,1.92.36l-.25.85a3.84,3.84,0,0,0-1.63-.34,3,3,0,0,0-3.16,3.34,2.94,2.94,0,0,0,3.11,3.25,4.21,4.21,0,0,0,1.7-.34Z"/><path d="M620.23,248.72v8.08h-1v-8.08Z"/><path d="M622.31,254.09a1.86,1.86,0,0,0,2,2,4,4,0,0,0,1.61-.3l.18.75a4.67,4.67,0,0,1-1.93.36A2.69,2.69,0,0,1,621.3,254c0-1.76,1-3.13,2.73-3.13a2.45,2.45,0,0,1,2.39,2.73,4.68,4.68,0,0,1,0,.49Zm3.09-.75a1.49,1.49,0,0,0-1.46-1.72,1.75,1.75,0,0,0-1.62,1.72Z"/><path class="h" d="M602.13,234.82v3.78h1.92v-3.78h1.83v9.44h-1.83v-3.95h-1.92v3.95h-1.84v-9.44Z"/><path class="h" d="M610.05,244.26l-.1-.68h0a1.78,1.78,0,0,1-1.52.79,1.9,1.9,0,0,1-1.8-2.09c0-1.79,1.58-2.53,3.13-2.55v-.15a.87.87,0,0,0-1-.93,2.48,2.48,0,0,0-1.4.4l-.34-1.24a4.53,4.53,0,0,1,2.13-.52c2.09,0,2.42,1.46,2.42,2.85v2.55a8.7,8.7,0,0,0,.12,1.57Zm-.25-3.34c-.62,0-1.46.21-1.46,1.17,0,.68.38.93.66.93a.8.8,0,0,0,.76-.58,1.15,1.15,0,0,0,0-.33Z"/><path class="h" d="M612.53,239.47c0-.69,0-1.43-.06-2.06h1.6l.1,1h0a1.59,1.59,0,0,1,1.36-1.11,1.43,1.43,0,0,1,.39,0v1.82a2.3,2.3,0,0,0-.39,0,1.22,1.22,0,0,0-1.12,1,2.83,2.83,0,0,0-.07.68v3.48h-1.85Z"/><path class="h" d="M621.23,234.56v7.67c0,.65,0,1.4,0,2H619.7l-.1-.77h0a1.68,1.68,0,0,1-1.43.88c-1.45,0-2.12-1.61-2.12-3.53,0-2.38,1-3.55,2.19-3.55a1.16,1.16,0,0,1,1.15.69h0v-3.42ZM619.39,240c0-.13,0-.27,0-.41-.07-.42-.3-.79-.66-.79-.65,0-.88.93-.88,2,0,1.3.35,2,.86,2,.23,0,.5-.13.64-.6a1.24,1.24,0,0,0,0-.42Z"/><path class="h" d="M626,234.82v9.44h-1.83v-9.44Z"/><path class="h" d="M627.33,235a9,9,0,0,1,1.92-.19,3.59,3.59,0,0,1,2.56.73,2.74,2.74,0,0,1,.81,2.08,3.16,3.16,0,0,1-.8,2.26,3.28,3.28,0,0,1-2.29.9h-.37v3.52h-1.83Zm1.83,4.28a.92.92,0,0,0,.3,0c.92,0,1.34-.66,1.34-1.54s-.33-1.47-1.19-1.47a1.42,1.42,0,0,0-.45.07Z"/><rect class="n" x="505.49" y="388.07" width="38.89" height="15.21"/><rect class="o" x="505.49" y="375.54" width="38.89" height="12.53"/><path d="M514.73,391.73a11.33,11.33,0,0,1,2-.16,3.34,3.34,0,0,1,2.27.67,2.19,2.19,0,0,1,.71,1.69,2.37,2.37,0,0,1-.63,1.73,3.34,3.34,0,0,1-2.47.89,3.61,3.61,0,0,1-.84-.07v3.23h-1Zm1,3.9a3.58,3.58,0,0,0,.87.08c1.26,0,2-.61,2-1.73s-.75-1.58-1.9-1.58a5.05,5.05,0,0,0-1,.08Z"/><path d="M526.46,399.45a5.16,5.16,0,0,1-2.13.39,3.78,3.78,0,0,1-4-4.09,4,4,0,0,1,4.23-4.25,4.44,4.44,0,0,1,1.92.36l-.26.85a3.82,3.82,0,0,0-1.63-.33,3,3,0,0,0-3.15,3.33,2.94,2.94,0,0,0,3.1,3.25,4.1,4.1,0,0,0,1.71-.34Z"/><path d="M528.52,391.63v8.08h-1v-8.08Z"/><path d="M530.59,397a1.87,1.87,0,0,0,2,2,3.75,3.75,0,0,0,1.6-.3l.18.76a4.84,4.84,0,0,1-1.93.36,2.69,2.69,0,0,1-2.85-2.93c0-1.75,1-3.13,2.72-3.13a2.46,2.46,0,0,1,2.4,2.73,4,4,0,0,1,0,.49Zm3.1-.75a1.51,1.51,0,0,0-1.46-1.72,1.75,1.75,0,0,0-1.62,1.72Z"/><path class="h" d="M511.41,377.73v3.78h1.92v-3.78h1.84v9.44h-1.84v-3.95h-1.92v3.95h-1.83v-9.44Z"/><path class="h" d="M519.34,387.17l-.1-.67h0a1.79,1.79,0,0,1-1.51.78,1.9,1.9,0,0,1-1.81-2.09c0-1.79,1.58-2.53,3.14-2.54v-.16a.87.87,0,0,0-1-.92,2.6,2.6,0,0,0-1.4.39l-.34-1.23a4.41,4.41,0,0,1,2.13-.52c2.09,0,2.43,1.46,2.43,2.84v2.55a9.59,9.59,0,0,0,.11,1.57Zm-.26-3.33c-.61,0-1.45.21-1.45,1.16,0,.69.38.94.66.94a.79.79,0,0,0,.75-.59,1.12,1.12,0,0,0,0-.32Z"/><path class="h" d="M521.81,382.38c0-.69,0-1.43,0-2.06h1.59l.1,1h0a1.61,1.61,0,0,1,1.36-1.1,1.43,1.43,0,0,1,.39,0v1.82a1.51,1.51,0,0,0-.39,0,1.23,1.23,0,0,0-1.12,1,2.86,2.86,0,0,0-.07.69v3.47h-1.85Z"/><path class="h" d="M530.51,377.48v7.66c0,.66,0,1.4.06,2H529l-.1-.77h0a1.67,1.67,0,0,1-1.43.88c-1.46,0-2.13-1.61-2.13-3.53,0-2.38,1-3.54,2.2-3.54a1.17,1.17,0,0,1,1.15.68h0v-3.41ZM528.67,383c0-.12,0-.26,0-.4-.07-.42-.29-.8-.66-.8-.64,0-.88.94-.88,2,0,1.31.35,2,.87,2,.22,0,.49-.12.63-.6a1.24,1.24,0,0,0,0-.42Z"/><path class="h" d="M535.32,377.73v9.44h-1.83v-9.44Z"/><path class="h" d="M536.61,377.87a9.79,9.79,0,0,1,1.92-.18,3.53,3.53,0,0,1,2.56.73,2.72,2.72,0,0,1,.82,2.07,3.18,3.18,0,0,1-.8,2.27,3.33,3.33,0,0,1-2.3.89h-.36v3.52h-1.84Zm1.84,4.29a1.28,1.28,0,0,0,.29,0c.92,0,1.34-.66,1.34-1.54s-.33-1.47-1.19-1.47a1.4,1.4,0,0,0-.44.07Z"/><rect class="p" x="416.24" y="339.71" width="52.89" height="15.21"/><rect class="q" x="416.24" y="325.64" width="52.89" height="14.06"/><path d="M420.12,344.54h0l-1.36.73-.2-.81,1.7-.91h.9v7.8h-1Z"/><path d="M428.87,347.37c0,2.65-1,4.11-2.71,4.11-1.52,0-2.56-1.43-2.58-4s1.13-4.05,2.71-4.05S428.87,344.88,428.87,347.37Zm-4.23.12c0,2,.62,3.18,1.58,3.18s1.59-1.26,1.59-3.25-.49-3.18-1.58-3.18C425.31,344.24,424.64,345.36,424.64,347.49Z"/><path d="M434.72,347.37c0,2.65-1,4.11-2.71,4.11-1.52,0-2.55-1.43-2.57-4s1.12-4.05,2.71-4.05S434.72,344.88,434.72,347.37Zm-4.23.12c0,2,.62,3.18,1.58,3.18s1.6-1.26,1.6-3.25-.49-3.18-1.58-3.18C431.16,344.24,430.49,345.36,430.49,347.49Z"/><path d="M441.92,351a7.44,7.44,0,0,1-2.48.44,3.79,3.79,0,0,1-4.15-4.07,4.06,4.06,0,0,1,4.38-4.18,4.93,4.93,0,0,1,2,.37l-.25.85a4.23,4.23,0,0,0-1.79-.34,3,3,0,0,0-3.25,3.25,3,3,0,0,0,3.12,3.26,3.35,3.35,0,0,0,1.39-.22v-2.41h-1.64v-.84h2.66Z"/><path d="M452.28,347.8c-.06-1.13-.13-2.48-.12-3.49h0c-.27.95-.61,1.95-1,3.07l-1.42,3.92h-.8l-1.3-3.85c-.39-1.14-.71-2.18-.94-3.14h0c0,1-.09,2.36-.16,3.57l-.21,3.47h-1l.56-8.08h1.34l1.38,3.9c.33,1,.61,1.89.81,2.73h0c.2-.82.49-1.71.85-2.73l1.44-3.9H453l.5,8.08h-1Z"/><path d="M456,348.81l-.84,2.54h-1.08l2.75-8.08h1.26l2.76,8.08h-1.12l-.86-2.54Zm2.65-.82-.79-2.33c-.18-.52-.3-1-.42-1.47h0c-.12.48-.25,1-.41,1.46l-.79,2.34Z"/><path d="M467.21,351.09a5.25,5.25,0,0,1-2.14.38,3.77,3.77,0,0,1-4-4.09,4,4,0,0,1,4.22-4.25,4.4,4.4,0,0,1,1.92.36l-.25.85a3.85,3.85,0,0,0-1.63-.33,3,3,0,0,0-3.16,3.33,2.94,2.94,0,0,0,3.11,3.25,4.25,4.25,0,0,0,1.7-.33Z"/><path class="h" d="M426.38,328.36v3.78h1.92v-3.78h1.84v9.44H428.3v-3.95h-1.92v3.95h-1.83v-9.44Z"/><path class="h" d="M434.31,337.8l-.1-.67h0a1.8,1.8,0,0,1-1.51.79,1.9,1.9,0,0,1-1.81-2.09c0-1.79,1.58-2.54,3.14-2.55v-.15a.87.87,0,0,0-1-.93,2.6,2.6,0,0,0-1.4.39l-.34-1.23a4.53,4.53,0,0,1,2.13-.52c2.09,0,2.43,1.46,2.43,2.85v2.54a8.6,8.6,0,0,0,.11,1.57Zm-.26-3.33c-.61,0-1.45.21-1.45,1.16,0,.69.38.94.66.94A.79.79,0,0,0,434,336a1.12,1.12,0,0,0,0-.32Z"/><path class="h" d="M436.78,333c0-.68,0-1.43,0-2.06h1.59l.1,1h0a1.6,1.6,0,0,1,1.36-1.11,1.43,1.43,0,0,1,.39,0v1.82a1.51,1.51,0,0,0-.39,0,1.23,1.23,0,0,0-1.12,1,3,3,0,0,0-.07.69v3.47h-1.85Z"/><path class="h" d="M445.48,328.11v7.66c0,.66,0,1.4,0,2H444l-.1-.77h0a1.68,1.68,0,0,1-1.43.89c-1.46,0-2.13-1.62-2.13-3.53,0-2.39,1-3.55,2.2-3.55a1.18,1.18,0,0,1,1.15.69h0v-3.42Zm-1.84,5.48c0-.13,0-.27,0-.41-.07-.42-.29-.8-.66-.8-.64,0-.88.94-.88,2.05,0,1.3.35,2,.87,2,.22,0,.49-.13.63-.61a1.2,1.2,0,0,0,.05-.42Z"/><path class="h" d="M450.29,328.36v9.44h-1.83v-9.44Z"/><path class="h" d="M451.58,328.5a9.79,9.79,0,0,1,1.92-.18,3.53,3.53,0,0,1,2.56.73,2.72,2.72,0,0,1,.82,2.07,3.18,3.18,0,0,1-.8,2.27,3.3,3.3,0,0,1-2.3.9h-.36v3.51h-1.84Zm1.84,4.29a.86.86,0,0,0,.29,0c.92,0,1.34-.66,1.34-1.54s-.33-1.47-1.19-1.47a1.16,1.16,0,0,0-.44.07Z"/><rect class="r" x="581.13" y="297.04" width="53.15" height="15.21"/><rect class="s" x="581.13" y="283.03" width="53.15" height="13.76"/><path d="M584.74,301.87h0l-1.35.73-.21-.8,1.7-.91h.9v7.79h-1Z"/><path d="M593.49,304.7c0,2.65-1,4.11-2.71,4.11-1.52,0-2.55-1.42-2.58-4s1.13-4.06,2.71-4.06S593.49,302.22,593.49,304.7Zm-4.23.12c0,2,.62,3.18,1.58,3.18s1.6-1.26,1.6-3.25-.5-3.18-1.59-3.18C589.93,301.57,589.26,302.7,589.26,304.82Z"/><path d="M599.35,304.7c0,2.65-1,4.11-2.71,4.11-1.53,0-2.56-1.42-2.58-4s1.12-4.06,2.71-4.06S599.35,302.22,599.35,304.7Zm-4.24.12c0,2,.63,3.18,1.59,3.18s1.59-1.26,1.59-3.25-.49-3.18-1.58-3.18C595.78,301.57,595.11,302.7,595.11,304.82Z"/><path d="M606.55,308.32a7.52,7.52,0,0,1-2.49.45,3.8,3.8,0,0,1-4.15-4.08,4.06,4.06,0,0,1,4.38-4.17,5,5,0,0,1,2,.37l-.26.85a4.19,4.19,0,0,0-1.78-.35,3,3,0,0,0-3.25,3.25,3,3,0,0,0,3.11,3.26,3.46,3.46,0,0,0,1.4-.21v-2.41h-1.65v-.84h2.67Z"/><path d="M616.9,305.13c-.06-1.12-.13-2.48-.12-3.49h0c-.28.95-.62,2-1,3.07l-1.43,3.92h-.79l-1.31-3.85c-.38-1.13-.71-2.18-.94-3.14h0c0,1-.08,2.37-.16,3.58l-.21,3.46h-1l.57-8.08h1.33l1.38,3.91c.33,1,.61,1.88.81,2.72h0c.2-.81.49-1.7.85-2.72l1.44-3.91h1.33l.5,8.08h-1Z"/><path d="M620.62,306.14l-.84,2.54h-1.07l2.74-8.08h1.26l2.76,8.08h-1.12l-.86-2.54Zm2.65-.82-.79-2.32c-.18-.53-.3-1-.42-1.48h0c-.12.48-.25,1-.41,1.47l-.79,2.33Z"/><path d="M631.83,308.42a5.2,5.2,0,0,1-2.13.38,3.78,3.78,0,0,1-4-4.09,4,4,0,0,1,4.22-4.24,4.22,4.22,0,0,1,1.92.36l-.25.85a3.84,3.84,0,0,0-1.63-.34,3,3,0,0,0-3.16,3.34,2.94,2.94,0,0,0,3.11,3.25,4.21,4.21,0,0,0,1.7-.34Z"/><path class="h" d="M595,285.7v3.78h1.92V285.7h1.84v9.44h-1.84v-3.95H595v3.95h-1.83V285.7Z"/><path class="h" d="M602.93,295.14l-.1-.67h0a1.79,1.79,0,0,1-1.51.78,1.9,1.9,0,0,1-1.81-2.09c0-1.79,1.59-2.53,3.14-2.55v-.15a.88.88,0,0,0-1-.93,2.53,2.53,0,0,0-1.4.4l-.33-1.24a4.48,4.48,0,0,1,2.13-.51c2.08,0,2.42,1.45,2.42,2.84v2.55a9.59,9.59,0,0,0,.11,1.57Zm-.25-3.34c-.62,0-1.46.21-1.46,1.17,0,.68.38.94.66.94a.8.8,0,0,0,.75-.59,1.14,1.14,0,0,0,0-.33Z"/><path class="h" d="M605.4,290.35c0-.69,0-1.43,0-2.06H607l.09,1h.05a1.57,1.57,0,0,1,1.35-1.1,2.24,2.24,0,0,1,.4,0V290a2.42,2.42,0,0,0-.4,0,1.22,1.22,0,0,0-1.12,1,2.83,2.83,0,0,0-.07.68v3.48H605.4Z"/><path class="h" d="M614.1,285.44v7.67c0,.66,0,1.4.06,2h-1.59l-.09-.77h0a1.68,1.68,0,0,1-1.43.88c-1.46,0-2.13-1.61-2.13-3.53,0-2.38,1-3.54,2.2-3.54a1.17,1.17,0,0,1,1.15.68h0v-3.42Zm-1.83,5.48a2.82,2.82,0,0,0,0-.4c-.07-.43-.29-.8-.66-.8-.64,0-.88.94-.88,2,0,1.3.35,2,.87,2,.22,0,.49-.12.63-.6a1.21,1.21,0,0,0,.06-.42Z"/><path class="h" d="M618.92,285.7v9.44h-1.84V285.7Z"/><path class="h" d="M620.2,285.84a9,9,0,0,1,1.92-.19,3.58,3.58,0,0,1,2.56.73,2.74,2.74,0,0,1,.82,2.08,3.2,3.2,0,0,1-.8,2.27,3.33,3.33,0,0,1-2.3.89H622v3.52H620.2Zm1.84,4.28a.86.86,0,0,0,.29,0c.93,0,1.35-.66,1.35-1.54s-.34-1.47-1.19-1.47a1.42,1.42,0,0,0-.45.07Z"/><rect class="r" x="581.13" y="354.65" width="53.15" height="15.21"/><rect class="s" x="581.13" y="341.18" width="53.15" height="12.47"/><path d="M584.74,359.48h0l-1.35.73-.21-.8,1.7-.91h.9v7.79h-1Z"/><path d="M593.49,362.31c0,2.65-1,4.11-2.71,4.11-1.52,0-2.55-1.42-2.58-4s1.13-4.05,2.71-4.05S593.49,359.83,593.49,362.31Zm-4.23.12c0,2,.62,3.18,1.58,3.18s1.6-1.26,1.6-3.25-.5-3.18-1.59-3.18C589.93,359.18,589.26,360.31,589.26,362.43Z"/><path d="M599.35,362.31c0,2.65-1,4.11-2.71,4.11-1.53,0-2.56-1.42-2.58-4s1.12-4.05,2.71-4.05S599.35,359.83,599.35,362.31Zm-4.24.12c0,2,.63,3.18,1.59,3.18s1.59-1.26,1.59-3.25-.49-3.18-1.58-3.18C595.78,359.18,595.11,360.31,595.11,362.43Z"/><path d="M606.55,365.93a7.52,7.52,0,0,1-2.49.45,3.8,3.8,0,0,1-4.15-4.08,4.06,4.06,0,0,1,4.38-4.17,5,5,0,0,1,2,.37l-.26.85a4.19,4.19,0,0,0-1.78-.35,3,3,0,0,0-3.25,3.25,3,3,0,0,0,3.11,3.26,3.46,3.46,0,0,0,1.4-.21v-2.41h-1.65v-.84h2.67Z"/><path d="M616.9,362.74c-.06-1.12-.13-2.48-.12-3.49h0c-.28.95-.62,2-1,3.07l-1.43,3.93h-.79l-1.31-3.85c-.38-1.14-.71-2.19-.94-3.15h0c0,1-.08,2.37-.16,3.58l-.21,3.46h-1l.57-8.08h1.33l1.38,3.91c.33,1,.61,1.88.81,2.72h0c.2-.81.49-1.7.85-2.72l1.44-3.91h1.33l.5,8.08h-1Z"/><path d="M620.62,363.75l-.84,2.54h-1.07l2.74-8.08h1.26l2.76,8.08h-1.12l-.86-2.54Zm2.65-.82-.79-2.32c-.18-.53-.3-1-.42-1.48h0c-.12.48-.25,1-.41,1.47l-.79,2.33Z"/><path d="M631.83,366a5.2,5.2,0,0,1-2.13.38,3.78,3.78,0,0,1-4-4.09,4,4,0,0,1,4.22-4.24,4.22,4.22,0,0,1,1.92.36l-.25.85A3.84,3.84,0,0,0,630,359a3,3,0,0,0-3.16,3.34,2.94,2.94,0,0,0,3.11,3.25,4,4,0,0,0,1.7-.34Z"/><path class="h" d="M595,343.31v3.78h1.92v-3.78h1.84v9.44h-1.84V348.8H595v3.95h-1.83v-9.44Z"/><path class="h" d="M602.93,352.75l-.1-.67h0a1.79,1.79,0,0,1-1.51.78,1.9,1.9,0,0,1-1.81-2.09c0-1.79,1.59-2.53,3.14-2.55v-.15a.87.87,0,0,0-1-.92,2.6,2.6,0,0,0-1.4.39l-.33-1.24a4.48,4.48,0,0,1,2.13-.51c2.08,0,2.42,1.45,2.42,2.84v2.55a9.59,9.59,0,0,0,.11,1.57Zm-.25-3.34c-.62,0-1.46.21-1.46,1.17,0,.68.38.94.66.94a.8.8,0,0,0,.75-.59,1.13,1.13,0,0,0,0-.32Z"/><path class="h" d="M605.4,348c0-.69,0-1.43,0-2.06H607l.09,1h.05a1.57,1.57,0,0,1,1.35-1.1,2.24,2.24,0,0,1,.4,0v1.83a1.63,1.63,0,0,0-.4,0,1.22,1.22,0,0,0-1.12,1,2.83,2.83,0,0,0-.07.68v3.48H605.4Z"/><path class="h" d="M614.1,343.05v7.67c0,.66,0,1.4.06,2h-1.59l-.09-.77h0a1.68,1.68,0,0,1-1.43.88c-1.46,0-2.13-1.61-2.13-3.53,0-2.38,1-3.54,2.2-3.54a1.17,1.17,0,0,1,1.15.68h0v-3.42Zm-1.83,5.48a2.82,2.82,0,0,0,0-.4c-.07-.42-.29-.8-.66-.8-.64,0-.88.94-.88,2,0,1.3.35,2,.87,2,.22,0,.49-.12.63-.6a1.21,1.21,0,0,0,.06-.42Z"/><path class="h" d="M618.92,343.31v9.44h-1.84v-9.44Z"/><path class="h" d="M620.2,343.45a9.79,9.79,0,0,1,1.92-.18,3.58,3.58,0,0,1,2.56.72,2.74,2.74,0,0,1,.82,2.08,3.2,3.2,0,0,1-.8,2.27,3.33,3.33,0,0,1-2.3.89H622v3.52H620.2Zm1.84,4.28a.86.86,0,0,0,.29,0c.93,0,1.35-.66,1.35-1.54s-.34-1.47-1.19-1.47a1.42,1.42,0,0,0-.45.07Z"/><rect class="p" x="416.24" y="384.9" width="52.89" height="15.21"/><rect class="q" x="416.24" y="372.37" width="52.89" height="12.53"/><path d="M420.12,389.73h0l-1.36.73-.2-.8,1.7-.91h.9v7.79h-1Z"/><path d="M428.87,392.56c0,2.65-1,4.11-2.71,4.11-1.52,0-2.56-1.42-2.58-4s1.13-4.05,2.71-4.05S428.87,390.08,428.87,392.56Zm-4.23.12c0,2,.62,3.18,1.58,3.18s1.59-1.26,1.59-3.25-.49-3.18-1.58-3.18C425.31,389.43,424.64,390.56,424.64,392.68Z"/><path d="M434.72,392.56c0,2.65-1,4.11-2.71,4.11-1.52,0-2.55-1.42-2.57-4s1.12-4.05,2.71-4.05S434.72,390.08,434.72,392.56Zm-4.23.12c0,2,.62,3.18,1.58,3.18s1.6-1.26,1.6-3.25-.49-3.18-1.58-3.18C431.16,389.43,430.49,390.56,430.49,392.68Z"/><path d="M441.92,396.18a7.39,7.39,0,0,1-2.48.45,3.8,3.8,0,0,1-4.15-4.08,4.05,4.05,0,0,1,4.38-4.17,4.93,4.93,0,0,1,2,.37l-.25.85a4.21,4.21,0,0,0-1.79-.35,3,3,0,0,0-3.25,3.25,3,3,0,0,0,3.12,3.26,3.4,3.4,0,0,0,1.39-.21v-2.41h-1.64v-.84h2.66Z"/><path d="M452.28,393c-.06-1.12-.13-2.48-.12-3.49h0c-.27.95-.61,2-1,3.07l-1.42,3.93h-.8l-1.3-3.85c-.39-1.14-.71-2.19-.94-3.15h0c0,1-.09,2.37-.16,3.58l-.21,3.46h-1l.56-8.08h1.34l1.38,3.91c.33,1,.61,1.88.81,2.72h0c.2-.81.49-1.7.85-2.72l1.44-3.91H453l.5,8.08h-1Z"/><path d="M456,394l-.84,2.54h-1.08l2.75-8.08h1.26l2.76,8.08h-1.12l-.86-2.54Zm2.65-.82-.79-2.32c-.18-.53-.3-1-.42-1.48h0c-.12.48-.25,1-.41,1.47l-.79,2.33Z"/><path d="M467.21,396.28a5.25,5.25,0,0,1-2.14.38,3.77,3.77,0,0,1-4-4.09,4,4,0,0,1,4.22-4.24,4.26,4.26,0,0,1,1.92.36l-.25.85a3.84,3.84,0,0,0-1.63-.34,3,3,0,0,0-3.16,3.34,2.94,2.94,0,0,0,3.11,3.25,4.08,4.08,0,0,0,1.7-.34Z"/><path class="h" d="M427.38,374.56v3.78h1.92v-3.78h1.84V384H429.3v-3.95h-1.92V384h-1.83v-9.44Z"/><path class="h" d="M435.31,384l-.1-.67h0a1.79,1.79,0,0,1-1.51.78,1.9,1.9,0,0,1-1.81-2.09c0-1.79,1.58-2.53,3.14-2.55v-.15a.87.87,0,0,0-1-.92,2.6,2.6,0,0,0-1.4.39l-.34-1.24a4.54,4.54,0,0,1,2.13-.51c2.09,0,2.43,1.45,2.43,2.84v2.55A8.6,8.6,0,0,0,437,384Zm-.26-3.34c-.61,0-1.45.21-1.45,1.17,0,.68.38.94.66.94a.8.8,0,0,0,.75-.59,1.12,1.12,0,0,0,0-.32Z"/><path class="h" d="M437.78,379.21c0-.69,0-1.43,0-2.06h1.59l.1,1h0a1.59,1.59,0,0,1,1.36-1.1,2.12,2.12,0,0,1,.39,0v1.83a1.51,1.51,0,0,0-.39,0,1.22,1.22,0,0,0-1.12,1,2.83,2.83,0,0,0-.07.68V384h-1.85Z"/><path class="h" d="M446.48,374.3V382c0,.66,0,1.4,0,2H445l-.1-.77h0a1.69,1.69,0,0,1-1.43.88c-1.46,0-2.13-1.61-2.13-3.53,0-2.38,1-3.54,2.2-3.54a1.17,1.17,0,0,1,1.15.68h0V374.3Zm-1.84,5.48c0-.12,0-.26,0-.4-.07-.42-.29-.8-.66-.8-.64,0-.88.94-.88,2,0,1.3.35,2,.87,2,.22,0,.49-.12.63-.6a1.24,1.24,0,0,0,.05-.42Z"/><path class="h" d="M451.29,374.56V384h-1.83v-9.44Z"/><path class="h" d="M452.58,374.7a9.79,9.79,0,0,1,1.92-.18,3.58,3.58,0,0,1,2.56.72,2.74,2.74,0,0,1,.82,2.08,3.2,3.2,0,0,1-.8,2.27,3.33,3.33,0,0,1-2.3.89h-.36V384h-1.84Zm1.84,4.28a.86.86,0,0,0,.29,0c.92,0,1.34-.66,1.34-1.54s-.33-1.47-1.19-1.47a1.4,1.4,0,0,0-.44.07Z"/><path class="h" d="M320,394.49V391.7h-4v-1.62l3.83-7.29h2.27v7h1.17v1.89h-1.17v2.79Zm0-4.68v-2.4c0-.63.07-1.31.13-1.92h-.07c-.27.65-.51,1.17-.81,1.82L318,389.77v0Z"/><path class="h" d="M325.69,385.69l.54,1.56c.18.52.32,1.05.43,1.48h0c.12-.45.27-1,.41-1.48l.52-1.56H330L328,390l2,4.48h-2.58l-.59-1.66c-.16-.45-.31-.9-.43-1.35h0c-.11.45-.27.9-.4,1.35l-.54,1.66h-2.36l2-4.38-1.95-4.42Z"/><path class="h" d="M332.53,394.49v-1.58l1.17-1.5c1.51-1.93,2.75-3.53,2.75-5.2a1.43,1.43,0,0,0-1.49-1.6,3.35,3.35,0,0,0-1.77.59l-.41-1.84a5.26,5.26,0,0,1,2.61-.72,3.1,3.1,0,0,1,3.39,3.39c0,2.19-1.37,4-2.72,5.53l-.71.82v0h3.59v2.07Z"/><path class="h" d="M345.89,384.84h-3.1l-.27,2.09h.36a3.76,3.76,0,0,1,2.2.88,3.59,3.59,0,0,1,1,2.68,3.92,3.92,0,0,1-4.07,4.14,5.28,5.28,0,0,1-2.19-.46l.36-1.88a3.81,3.81,0,0,0,1.67.42,1.81,1.81,0,0,0,1.91-2c0-1.57-1.19-2.09-2.54-2.09a5.24,5.24,0,0,0-.83,0l.65-5.87h4.85Z"/><path class="h" d="M354.31,394.17a8.12,8.12,0,0,1-2.52.43,4.31,4.31,0,0,1-3.24-1.21,6.69,6.69,0,0,1-1.57-4.9c.06-4.41,2.58-6.24,5.15-6.24a4.82,4.82,0,0,1,2,.36l-.41,2a3,3,0,0,0-1.39-.27c-1.6,0-2.88,1.1-2.88,4.27,0,2.92,1.14,4,2.23,4a1.65,1.65,0,0,0,.47-.05v-2.94h-1.08v-1.93h3.26Z"/><path class="h" d="M320,349.59V346.8h-4v-1.62l3.83-7.3h2.27v7h1.17v1.9h-1.17v2.79Zm0-4.69v-2.39c0-.63.07-1.31.13-1.93h-.07c-.27.65-.51,1.17-.81,1.82L318,344.87v0Z"/><path class="h" d="M325.69,340.78l.54,1.57c.18.52.32,1,.43,1.47h0c.12-.45.27-1,.41-1.47l.52-1.57H330l-2,4.32,2,4.49h-2.58l-.59-1.66c-.16-.45-.31-.9-.43-1.35h0c-.11.45-.27.9-.4,1.35l-.54,1.66h-2.36l2-4.38-1.95-4.43Z"/><path class="h" d="M332.53,349.59V348l1.17-1.49c1.51-1.93,2.75-3.53,2.75-5.21a1.44,1.44,0,0,0-1.49-1.6,3.35,3.35,0,0,0-1.77.6l-.41-1.84a5.26,5.26,0,0,1,2.61-.72,3.1,3.1,0,0,1,3.39,3.38c0,2.2-1.37,4-2.72,5.53l-.71.83v0h3.59v2.07Z"/><path class="h" d="M345.89,339.94h-3.1l-.27,2.08h.36a3.78,3.78,0,0,1,2.2.89,3.59,3.59,0,0,1,1,2.68,3.92,3.92,0,0,1-4.07,4.14,5.27,5.27,0,0,1-2.19-.47l.36-1.87a3.81,3.81,0,0,0,1.67.41,1.8,1.8,0,0,0,1.91-2c0-1.57-1.19-2.09-2.54-2.09a7,7,0,0,0-.83,0l.65-5.87h4.85Z"/><path class="h" d="M354.31,349.26a7.84,7.84,0,0,1-2.52.43,4.31,4.31,0,0,1-3.24-1.2,6.69,6.69,0,0,1-1.57-4.9c.06-4.41,2.58-6.25,5.15-6.25a4.82,4.82,0,0,1,2,.36l-.41,2a3,3,0,0,0-1.39-.27c-1.6,0-2.88,1.1-2.88,4.26,0,2.92,1.14,4,2.23,4a1.29,1.29,0,0,0,.47-.06v-2.93h-1.08v-1.93h3.26Z"/><path class="h" d="M320,283.41v-2.8h-4V279l3.83-7.29h2.27v7h1.17v1.89h-1.17v2.8Zm0-4.69v-2.39c0-.63.07-1.31.13-1.93h-.07c-.27.65-.51,1.17-.81,1.82L318,278.69v0Z"/><path class="h" d="M325.69,274.6l.54,1.57c.18.52.32,1,.43,1.47h0c.12-.45.27-1,.41-1.47l.52-1.57H330l-2,4.32,2,4.49h-2.58l-.59-1.66c-.16-.45-.31-.9-.43-1.35h0c-.11.45-.27.9-.4,1.35l-.54,1.66h-2.36l2-4.38-1.95-4.43Z"/><path class="h" d="M332.53,283.41v-1.59l1.17-1.49c1.51-1.93,2.75-3.53,2.75-5.21a1.44,1.44,0,0,0-1.49-1.6,3.35,3.35,0,0,0-1.77.59l-.41-1.83a5.26,5.26,0,0,1,2.61-.72,3.1,3.1,0,0,1,3.39,3.38c0,2.2-1.37,4-2.72,5.53l-.71.83v0h3.59v2.07Z"/><path class="h" d="M345.89,273.75h-3.1l-.27,2.09h.36a3.78,3.78,0,0,1,2.2.89,3.59,3.59,0,0,1,1,2.68,3.92,3.92,0,0,1-4.07,4.14,5.27,5.27,0,0,1-2.19-.47l.36-1.87a3.81,3.81,0,0,0,1.67.41,1.81,1.81,0,0,0,1.91-2c0-1.56-1.19-2.08-2.54-2.08a7,7,0,0,0-.83,0l.65-5.87h4.85Z"/><path class="h" d="M354.31,283.08a7.84,7.84,0,0,1-2.52.43,4.31,4.31,0,0,1-3.24-1.2,6.69,6.69,0,0,1-1.57-4.9c.06-4.41,2.58-6.25,5.15-6.25a4.82,4.82,0,0,1,2,.36l-.41,2a3,3,0,0,0-1.39-.27c-1.6,0-2.88,1.1-2.88,4.26,0,2.92,1.14,4,2.23,4a1.29,1.29,0,0,0,.47-.06v-2.93h-1.08V276.6h3.26Z"/><path class="h" d="M320,235.8V233h-4v-1.62l3.83-7.29h2.27v7h1.17V233h-1.17v2.79Zm0-4.68v-2.39c0-.63.07-1.32.13-1.93h-.07c-.27.65-.51,1.17-.81,1.82L318,231.09v0Z"/><path class="h" d="M325.69,227l.54,1.57c.18.52.32,1,.43,1.47h0c.12-.45.27-1,.41-1.47l.52-1.57H330l-2,4.32,2,4.48h-2.58l-.59-1.65c-.16-.45-.31-.9-.43-1.35h0c-.11.45-.27.9-.4,1.35l-.54,1.65h-2.36l2-4.37L323.13,227Z"/><path class="h" d="M332.53,235.8v-1.58l1.17-1.5c1.51-1.92,2.75-3.52,2.75-5.2a1.44,1.44,0,0,0-1.49-1.6,3.35,3.35,0,0,0-1.77.59l-.41-1.83a5.16,5.16,0,0,1,2.61-.72,3.1,3.1,0,0,1,3.39,3.38c0,2.2-1.37,4-2.72,5.53l-.71.83v0h3.59v2.07Z"/><path class="h" d="M345.89,226.15h-3.1l-.27,2.09h.36a3.76,3.76,0,0,1,2.2.88,3.61,3.61,0,0,1,1,2.69A3.92,3.92,0,0,1,342,236a5.27,5.27,0,0,1-2.19-.47l.36-1.87a4,4,0,0,0,1.67.41,1.81,1.81,0,0,0,1.91-2c0-1.56-1.19-2.09-2.54-2.09a5.24,5.24,0,0,0-.83,0l.65-5.87h4.85Z"/><path class="h" d="M354.31,235.48a7.84,7.84,0,0,1-2.52.43,4.31,4.31,0,0,1-3.24-1.2,6.69,6.69,0,0,1-1.57-4.9c.06-4.41,2.58-6.25,5.15-6.25a4.82,4.82,0,0,1,2,.36l-.41,2a3,3,0,0,0-1.39-.27c-1.6,0-2.88,1.1-2.88,4.27,0,2.92,1.14,4,2.23,4a1.35,1.35,0,0,0,.47,0v-2.94h-1.08V229h3.26Z"/><path class="h" d="M806.16,251.69a3.66,3.66,0,0,1,1.76-3.12v0a3.07,3.07,0,0,1,1.88-5.66,2.86,2.86,0,0,1,3,2.88,3,3,0,0,1-1.53,2.6v0a3.41,3.41,0,0,1,1.8,3.06,3.31,3.31,0,0,1-3.51,3.42A3.15,3.15,0,0,1,806.16,251.69Zm4.64-.15a2.4,2.4,0,0,0-1.35-2.16,2.45,2.45,0,0,0-1,2c0,1,.41,1.87,1.22,1.87S810.8,252.53,810.8,251.54Zm-2.1-5.65a1.14,1.14,0,1,0,2,.09c0-.79-.27-1.51-.95-1.51S808.7,245.17,808.7,245.89Z"/><path class="h" d="M815.7,245.92l.54,1.57c.18.52.32,1,.43,1.48h0c.12-.45.27-1,.41-1.48l.52-1.57H820l-2,4.33,2,4.48h-2.58l-.59-1.66c-.16-.45-.31-.9-.43-1.35h0c-.11.45-.27.9-.4,1.35l-.54,1.66h-2.36l2-4.38-2-4.43Z"/><path class="h" d="M825.33,245.24h0l-2,1-.39-1.86L825.6,243h2.07v11.7h-2.34Z"/><path class="h" d="M829.76,254.73v-1.58l1.17-1.5c1.51-1.93,2.75-3.53,2.75-5.2a1.44,1.44,0,0,0-1.49-1.61,3.35,3.35,0,0,0-1.77.6L830,243.6a5.26,5.26,0,0,1,2.61-.72,3.1,3.1,0,0,1,3.39,3.39c0,2.19-1.37,4-2.72,5.52l-.71.83v0h3.59v2.07Z"/><path class="h" d="M837.41,253.31a1.49,1.49,0,0,1,1.38-1.57,1.42,1.42,0,0,1,1.37,1.57,1.39,1.39,0,0,1-1.38,1.56A1.43,1.43,0,0,1,837.41,253.31Z"/><path class="h" d="M846.86,245.08h-3.1l-.27,2.09h.36a3.74,3.74,0,0,1,2.2.88,3.56,3.56,0,0,1,1,2.68,3.92,3.92,0,0,1-4.07,4.14,5.3,5.3,0,0,1-2.2-.46l.36-1.88a3.84,3.84,0,0,0,1.67.42,1.81,1.81,0,0,0,1.91-2c0-1.57-1.18-2.09-2.53-2.09a5.11,5.11,0,0,0-.83,0L842,243h4.85Z"/><path class="h" d="M855.28,254.41a8.12,8.12,0,0,1-2.52.43,4.33,4.33,0,0,1-3.24-1.21,6.73,6.73,0,0,1-1.57-4.9c.06-4.41,2.58-6.24,5.15-6.24a4.78,4.78,0,0,1,2,.36l-.41,2a3,3,0,0,0-1.39-.27c-1.6,0-2.88,1.1-2.88,4.27,0,2.91,1.14,4,2.24,4a1.62,1.62,0,0,0,.46-.05v-2.94H852v-1.93h3.26Z"/><path class="h" d="M864.08,245.15v4H868v1.48h-3.89v4.07h-1.51v-4.07h-3.89v-1.48h3.89v-4Z"/><path class="h" d="M878.43,254.41a8.12,8.12,0,0,1-2.52.43,4.31,4.31,0,0,1-3.24-1.21,6.69,6.69,0,0,1-1.57-4.9c.06-4.41,2.58-6.24,5.15-6.24a4.82,4.82,0,0,1,2,.36l-.41,2a3,3,0,0,0-1.39-.27c-1.6,0-2.88,1.1-2.88,4.27,0,2.91,1.13,4,2.23,4a1.65,1.65,0,0,0,.47-.05v-2.94h-1.08v-1.93h3.26Z"/><path class="h" d="M879.74,242.77a12.74,12.74,0,0,1,2.47-.23,4.58,4.58,0,0,1,3.29.94,3.49,3.49,0,0,1,1,2.66,4.1,4.1,0,0,1-1,2.92,4.25,4.25,0,0,1-2.95,1.15h-.47v4.52h-2.36Zm2.36,5.51a1.11,1.11,0,0,0,.38,0c1.19,0,1.73-.85,1.73-2s-.43-1.89-1.53-1.89a1.61,1.61,0,0,0-.58.09Z"/><path class="h" d="M889.88,242.59v12.14h-2.36V242.59Z"/><path class="h" d="M898.7,248.45c0,4.57-1.62,6.42-3.93,6.42-2.75,0-3.83-2.91-3.83-6.24s1.31-6.18,4-6.18C897.87,242.45,898.7,245.67,898.7,248.45Zm-5.31.21c0,2.76.52,4.16,1.47,4.16s1.37-1.8,1.37-4.27c0-2.12-.32-4.05-1.39-4.05S893.39,246.05,893.39,248.66Z"/><path class="h" d="M806.16,216.48a3.65,3.65,0,0,1,1.76-3.11v0a3.06,3.06,0,0,1,1.88-5.65,2.85,2.85,0,0,1,3,2.88,3,3,0,0,1-1.53,2.59v0a3.39,3.39,0,0,1,1.8,3.06,3.31,3.31,0,0,1-3.51,3.42A3.16,3.16,0,0,1,806.16,216.48Zm4.64-.14a2.4,2.4,0,0,0-1.35-2.16,2.42,2.42,0,0,0-1,2c0,1,.41,1.88,1.22,1.88S810.8,217.33,810.8,216.34Zm-2.1-5.65a1.14,1.14,0,1,0,2,.09c0-.8-.27-1.52-.95-1.52S808.7,210,808.7,210.69Z"/><path class="h" d="M815.7,210.72l.54,1.57c.18.52.32,1,.43,1.48h0c.12-.46.27-1,.41-1.48l.52-1.57H820L818,215l2,4.49h-2.58l-.59-1.66c-.16-.45-.31-.9-.43-1.35h0c-.11.45-.27.9-.4,1.35l-.54,1.66h-2.36l2-4.38-2-4.43Z"/><path class="h" d="M825.33,210h0l-2,1-.39-1.85,2.68-1.39h2.07v11.71h-2.34Z"/><path class="h" d="M829.76,219.53v-1.59l1.17-1.49c1.51-1.93,2.75-3.53,2.75-5.21a1.44,1.44,0,0,0-1.49-1.6,3.35,3.35,0,0,0-1.77.6L830,208.4a5.26,5.26,0,0,1,2.61-.72,3.1,3.1,0,0,1,3.39,3.38c0,2.2-1.37,4-2.72,5.53l-.71.83v0h3.59v2.07Z"/><path class="h" d="M837.41,218.1a1.48,1.48,0,0,1,1.38-1.56,1.58,1.58,0,0,1,0,3.13A1.43,1.43,0,0,1,837.41,218.1Z"/><path class="h" d="M846.86,209.88h-3.1l-.27,2.08h.36a3.76,3.76,0,0,1,2.2.89,3.56,3.56,0,0,1,1,2.68,3.92,3.92,0,0,1-4.07,4.14,5.29,5.29,0,0,1-2.2-.47l.36-1.87a3.84,3.84,0,0,0,1.67.41,1.8,1.8,0,0,0,1.91-2c0-1.57-1.18-2.09-2.53-2.09a6.8,6.8,0,0,0-.83,0l.64-5.87h4.85Z"/><path class="h" d="M855.28,219.2a7.84,7.84,0,0,1-2.52.43,4.32,4.32,0,0,1-3.24-1.2,6.73,6.73,0,0,1-1.57-4.9c.06-4.41,2.58-6.25,5.15-6.25a4.78,4.78,0,0,1,2,.36l-.41,2a3,3,0,0,0-1.39-.27c-1.6,0-2.88,1.1-2.88,4.27,0,2.91,1.14,4,2.24,4a1.27,1.27,0,0,0,.46-.06v-2.93H852v-1.93h3.26Z"/><path class="h" d="M864.08,210v4H868v1.48h-3.89v4.07h-1.51v-4.07h-3.89V214h3.89v-4Z"/><path class="h" d="M878.43,219.2a7.84,7.84,0,0,1-2.52.43,4.31,4.31,0,0,1-3.24-1.2,6.69,6.69,0,0,1-1.57-4.9c.06-4.41,2.58-6.25,5.15-6.25a4.82,4.82,0,0,1,2,.36l-.41,2a3,3,0,0,0-1.39-.27c-1.6,0-2.88,1.1-2.88,4.27,0,2.91,1.13,4,2.23,4a1.29,1.29,0,0,0,.47-.06v-2.93h-1.08v-1.93h3.26Z"/><path class="h" d="M879.74,207.57a12.74,12.74,0,0,1,2.47-.23,4.62,4.62,0,0,1,3.29.93,3.51,3.51,0,0,1,1,2.67,4.11,4.11,0,0,1-1,2.92,4.25,4.25,0,0,1-2.95,1.15h-.47v4.52h-2.36Zm2.36,5.51a1.11,1.11,0,0,0,.38,0c1.19,0,1.73-.85,1.73-2s-.43-1.89-1.53-1.89a1.61,1.61,0,0,0-.58.09Z"/><path class="h" d="M889.88,207.39v12.14h-2.36V207.39Z"/><path class="h" d="M898.7,213.24c0,4.58-1.62,6.43-3.93,6.43-2.75,0-3.83-2.92-3.83-6.25s1.31-6.17,4-6.17C897.87,207.25,898.7,210.47,898.7,213.24Zm-5.31.22c0,2.75.52,4.16,1.47,4.16s1.37-1.8,1.37-4.27c0-2.12-.32-4-1.39-4S893.39,210.85,893.39,213.46Z"/><path class="t" d="M517.9,516.44a12,12,0,0,1-.24-2.47,4.58,4.58,0,0,1,.94-3.29,3.5,3.5,0,0,1,2.66-1.05,4.1,4.1,0,0,1,2.92,1,4.25,4.25,0,0,1,1.15,2.95v.47h4.52v2.36Zm5.5-2.36a1.11,1.11,0,0,0,0-.38c0-1.19-.85-1.73-2-1.73s-1.89.43-1.89,1.53a1.86,1.86,0,0,0,.09.58Z"/><path class="t" d="M529.67,502.85a4.79,4.79,0,0,1,.29,1.83c0,3.1-2.56,4.58-6,4.58-4.57,0-6.35-2.54-6.35-4.9a3.27,3.27,0,0,1,.32-1.64l2,.4a2.43,2.43,0,0,0-.23,1.09c0,1.34,1.15,2.54,4.16,2.54s4-1.09,4-2.54a4.18,4.18,0,0,0-.18-1.13Z"/><path class="t" d="M517.72,499.64h12.13V502H517.72Z"/><path class="t" d="M526.29,496.33a1.7,1.7,0,0,0,1.87-1.87,5.23,5.23,0,0,0-.29-1.67l1.69-.33a7.13,7.13,0,0,1,.4,2.43c0,2.4-1.59,3.71-4.34,3.71-3,0-4.72-1.53-4.72-3.53s1.5-3,4.16-3a6.79,6.79,0,0,1,1.23.07Zm-1.66-2.1c-1.14,0-2,.28-2,1s1.14,1.08,2,1.09Z"/><path class="t" d="M529.53,481.84a8.12,8.12,0,0,1,.43,2.52,4.31,4.31,0,0,1-1.21,3.24,6.64,6.64,0,0,1-4.89,1.57c-4.42-.05-6.25-2.58-6.25-5.15a4.82,4.82,0,0,1,.36-2l2,.41a3,3,0,0,0-.27,1.39c0,1.6,1.1,2.88,4.27,2.88,2.92,0,4-1.13,4-2.23a1.65,1.65,0,0,0-.05-.47H525v1.08H523v-3.26Z"/><path class="t" d="M526.29,478.78a1.7,1.7,0,0,0,1.87-1.87,5.23,5.23,0,0,0-.29-1.67l1.69-.33a7.13,7.13,0,0,1,.4,2.43c0,2.4-1.59,3.71-4.34,3.71-3,0-4.72-1.53-4.72-3.53s1.5-3,4.16-3a5.76,5.76,0,0,1,1.23.08Zm-1.66-2.1c-1.14,0-2,.28-2,1s1.14,1.08,2,1.09Z"/><path class="t" d="M523.69,473.65c-1,0-1.82.06-2.64.08v-2l1-.11v0a2.54,2.54,0,0,1-1.15-2.15c0-1.67,1.33-2.34,3.3-2.34h5.65v2.36h-5.51c-.75,0-1.46.18-1.46.87a1,1,0,0,0,.79.88,2.45,2.45,0,0,0,.82.12h5.36v2.36Z"/><path class="t" d="M527.62,465.91a3.59,3.59,0,0,0,.45-1.74,1.61,1.61,0,0,0-1.69-1.77c-1.3,0-1.86,1-1.86,2.2v.32h-1.73v-.23c0-.87-.38-2-1.51-2a1.26,1.26,0,0,0-1.35,1.37,2.84,2.84,0,0,0,.47,1.47l-1.78.31a4.93,4.93,0,0,1-.62-2.41,2.8,2.8,0,0,1,2.83-3.08,2.87,2.87,0,0,1,2.63,1.67h0a3,3,0,0,1,3-2A3.6,3.6,0,0,1,530,464a5,5,0,0,1-.52,2.31Z"/><path class="t" d="M521.05,454.38l1.56-.54c.52-.18,1-.33,1.48-.44v0c-.45-.13-1-.27-1.48-.42l-1.56-.52v-2.38l4.32,2,4.48-2v2.57l-1.66.6c-.45.16-.9.3-1.35.43v0c.45.1.9.27,1.35.39l1.66.54V457l-4.37-2-4.43,1.94Z"/><path class="t" d="M520.36,447.16v0l1,2-1.86.4-1.38-2.68v-2.07h11.7v2.34Z"/><path class="t" d="M519.91,436.77a7.91,7.91,0,0,0,.13,1,3.55,3.55,0,0,0,3.11,2.61v-.05a2.19,2.19,0,0,1-.93-1.8c0-1.59,1.42-2.65,3.63-2.65,2.06,0,4.14,1,4.14,3.33s-1.92,3.57-4.82,3.57a7.7,7.7,0,0,1-5.46-1.93,5.33,5.33,0,0,1-1.58-2.86,8.23,8.23,0,0,1-.13-1.19Zm5.93,1.4c-1,0-1.93.35-1.93,1.1a1.08,1.08,0,0,0,.79,1,2.83,2.83,0,0,0,1,.12c1.53,0,2.55-.43,2.55-1.13S527.24,438.17,525.84,438.17Z"/><path d="M1059.09,202.87c0,4-2.41,6.39-6,6.39s-5.71-2.72-5.71-6.18c0-3.63,2.32-6.35,5.91-6.35S1059.09,199.52,1059.09,202.87Zm-8.77.16c0,2.37,1.12,4.05,3,4.05s2.92-1.77,2.92-4.12c0-2.18-1-4.06-2.93-4.06S1050.32,200.67,1050.32,203Z"/><path d="M1069.35,208.72a7.91,7.91,0,0,1-3.12.52c-4.19,0-6.35-2.61-6.35-6.07,0-4.14,2.95-6.44,6.62-6.44a7,7,0,0,1,3,.54l-.56,2.18a5.77,5.77,0,0,0-2.3-.45,4,4,0,0,0,0,8,7,7,0,0,0,2.28-.39Z"/><path d="M1078.55,206.23c0,1.16,0,2.09.07,2.83h-2.38l-.12-1.24h-.06a3.13,3.13,0,0,1-2.75,1.44c-1.79,0-3.1-1.12-3.1-3.84v-5.16H1073V205c0,1.28.42,2,1.37,2a1.47,1.47,0,0,0,1.37-.95,1.56,1.56,0,0,0,.09-.59v-5.24h2.76Z"/><path d="M1080.38,196.92h2.75v9.84H1088v2.3h-7.58Z"/><path d="M1091.86,197.81a1.37,1.37,0,0,1-1.47,1.37,1.38,1.38,0,1,1,0-2.76A1.36,1.36,0,0,1,1091.86,197.81ZM1089,209.06v-8.8h2.73v8.8Z"/><path d="M1093.52,203.06c0-1.09,0-2-.07-2.8h2.37l.13,1.2h0a3.22,3.22,0,0,1,2.72-1.4c1.8,0,3.15,1.19,3.15,3.78v5.22h-2.73v-4.88c0-1.13-.4-1.91-1.39-1.91a1.46,1.46,0,0,0-1.39,1,1.91,1.91,0,0,0-.1.68v5.08h-2.74Z"/><path d="M1106.35,204h0c.2-.36.41-.72.63-1.06l1.78-2.64h3.3l-3.15,3.56,3.6,5.24h-3.37l-2.12-3.62-.71.87v2.75h-2.73V196.28h2.73Z"/><path d="M1059.09,260.48c0,4-2.41,6.39-6,6.39s-5.71-2.72-5.71-6.18c0-3.63,2.32-6.35,5.91-6.35S1059.09,257.13,1059.09,260.48Zm-8.77.16c0,2.38,1.12,4.05,3,4.05s2.92-1.76,2.92-4.12c0-2.18-1-4.05-2.93-4.05S1050.32,258.28,1050.32,260.64Z"/><path d="M1069.35,266.33a7.91,7.91,0,0,1-3.12.52c-4.19,0-6.35-2.61-6.35-6.07,0-4.14,2.95-6.44,6.62-6.44a7.14,7.14,0,0,1,3,.54l-.56,2.18a5.77,5.77,0,0,0-2.3-.45,4,4,0,0,0,0,8,7,7,0,0,0,2.28-.39Z"/><path d="M1078.55,263.84c0,1.16,0,2.09.07,2.83h-2.38l-.12-1.24h-.06a3.13,3.13,0,0,1-2.75,1.44c-1.79,0-3.1-1.12-3.1-3.84v-5.16H1073v4.73c0,1.28.42,2,1.37,2a1.47,1.47,0,0,0,1.37-.95,1.56,1.56,0,0,0,.09-.59v-5.24h2.76Z"/><path d="M1080.38,254.53h2.75v9.84H1088v2.3h-7.58Z"/><path d="M1091.86,255.42a1.37,1.37,0,0,1-1.47,1.37,1.38,1.38,0,1,1,0-2.76A1.37,1.37,0,0,1,1091.86,255.42ZM1089,266.67v-8.8h2.73v8.8Z"/><path d="M1093.52,260.67c0-1.09,0-2-.07-2.8h2.37l.13,1.2h0a3.22,3.22,0,0,1,2.72-1.4c1.8,0,3.15,1.19,3.15,3.78v5.22h-2.73v-4.88c0-1.13-.4-1.91-1.39-1.91a1.46,1.46,0,0,0-1.39,1,1.91,1.91,0,0,0-.1.68v5.08h-2.74Z"/><path d="M1106.35,261.57h0c.2-.36.41-.72.63-1.06l1.78-2.64h3.3l-3.15,3.56,3.6,5.24h-3.37l-2.12-3.62-.71.87v2.75h-2.73V253.89h2.73Z"/><path d="M874.34,300.9c0,4-2.42,6.39-6,6.39s-5.71-2.72-5.71-6.18c0-3.63,2.32-6.35,5.9-6.35S874.34,297.55,874.34,300.9Zm-8.77.16c0,2.37,1.11,4.05,2.95,4.05s2.92-1.77,2.92-4.12c0-2.18-1.05-4.06-2.94-4.06S865.57,298.7,865.57,301.06Z"/><path d="M884.6,306.75a7.91,7.91,0,0,1-3.12.52c-4.19,0-6.36-2.61-6.36-6.07,0-4.14,3-6.44,6.63-6.44a7.06,7.06,0,0,1,3,.54l-.56,2.18a5.81,5.81,0,0,0-2.3-.45,4,4,0,0,0,0,8,7,7,0,0,0,2.29-.39Z"/><path d="M893.79,304.26c0,1.16,0,2.09.07,2.83h-2.37l-.13-1.24h-.05a3.14,3.14,0,0,1-2.76,1.44c-1.78,0-3.09-1.12-3.09-3.84v-5.16h2.75V303c0,1.28.42,2.05,1.37,2.05a1.47,1.47,0,0,0,1.37-.95,1.56,1.56,0,0,0,.09-.59v-5.24h2.75Z"/><path d="M895.63,295h2.75v9.84h4.83v2.3h-7.58Z"/><path d="M907.11,295.84a1.38,1.38,0,0,1-1.48,1.37,1.38,1.38,0,1,1,0-2.76A1.37,1.37,0,0,1,907.11,295.84Zm-2.83,11.25v-8.8H907v8.8Z"/><path d="M908.77,301.09c0-1.09,0-2-.08-2.8h2.38l.13,1.2h0a3.22,3.22,0,0,1,2.72-1.4c1.8,0,3.15,1.19,3.15,3.78v5.22h-2.74v-4.88c0-1.13-.39-1.91-1.38-1.91a1.46,1.46,0,0,0-1.39,1,1.9,1.9,0,0,0-.11.68v5.08h-2.73Z"/><path d="M921.6,302h0c.19-.36.41-.72.63-1.06l1.78-2.64h3.29l-3.15,3.56,3.6,5.24h-3.36l-2.13-3.62-.7.87v2.75h-2.74V294.31h2.74Z"/><path d="M874.34,358.51c0,4-2.42,6.39-6,6.39s-5.71-2.72-5.71-6.18c0-3.63,2.32-6.35,5.9-6.35S874.34,355.16,874.34,358.51Zm-8.77.16c0,2.37,1.11,4.05,2.95,4.05s2.92-1.76,2.92-4.12c0-2.18-1.05-4.06-2.94-4.06S865.57,356.31,865.57,358.67Z"/><path d="M884.6,364.36a7.91,7.91,0,0,1-3.12.52c-4.19,0-6.36-2.61-6.36-6.07,0-4.14,3-6.44,6.63-6.44a7.22,7.22,0,0,1,3,.54l-.56,2.18a5.81,5.81,0,0,0-2.3-.45,4,4,0,0,0,0,8,7,7,0,0,0,2.29-.39Z"/><path d="M893.79,361.87c0,1.16,0,2.09.07,2.83h-2.37l-.13-1.24h-.05a3.14,3.14,0,0,1-2.76,1.44c-1.78,0-3.09-1.12-3.09-3.84V355.9h2.75v4.73c0,1.28.42,2.05,1.37,2.05a1.47,1.47,0,0,0,1.37-.95,1.56,1.56,0,0,0,.09-.59V355.9h2.75Z"/><path d="M895.63,352.56h2.75v9.84h4.83v2.3h-7.58Z"/><path d="M907.11,353.45a1.38,1.38,0,0,1-1.48,1.37,1.38,1.38,0,1,1,0-2.76A1.38,1.38,0,0,1,907.11,353.45Zm-2.83,11.25v-8.8H907v8.8Z"/><path d="M908.77,358.71c0-1.1,0-2-.08-2.81h2.38l.13,1.2h0a3.22,3.22,0,0,1,2.72-1.4c1.8,0,3.15,1.19,3.15,3.78v5.22h-2.74v-4.88c0-1.13-.39-1.91-1.38-1.91a1.46,1.46,0,0,0-1.39,1,1.9,1.9,0,0,0-.11.68v5.08h-2.73Z"/><path d="M921.6,359.6h0c.19-.35.41-.72.63-1.06l1.78-2.64h3.29l-3.15,3.56,3.6,5.24h-3.36l-2.13-3.62-.7.87v2.75h-2.74V351.92h2.74Z"/><path d="M836.36,128.71a24.79,24.79,0,0,1,3.71-.25,7.83,7.83,0,0,1,5,1.3,5.36,5.36,0,0,1,2.05,4.57,6.17,6.17,0,0,1-2,4.92,8.72,8.72,0,0,1-5.6,1.56,23.66,23.66,0,0,1-3.11-.18Zm2.75,9.91a5.51,5.51,0,0,0,1,0c2.48,0,4.1-1.35,4.1-4.25a3.48,3.48,0,0,0-3.82-3.85,5.34,5.34,0,0,0-1.24.11Z"/><path d="M851.19,128.55v12.14h-2.75V128.55Z"/><path d="M863.38,136c-.06-1.46-.11-3.22-.11-5h0c-.38,1.55-.89,3.28-1.35,4.7l-1.48,4.74h-2.14l-1.3-4.7c-.4-1.42-.81-3.15-1.1-4.74h0c-.08,1.64-.13,3.51-.22,5l-.22,4.61h-2.53l.77-12.14h3.65l1.19,4c.38,1.41.76,2.92,1,4.34h0c.35-1.4.76-3,1.16-4.36l1.29-4h3.58l.67,12.14h-2.68Z"/><path d="M878.16,136c-.06-1.46-.11-3.22-.11-5H878c-.37,1.55-.88,3.28-1.35,4.7l-1.47,4.74H873l-1.29-4.7c-.4-1.42-.81-3.15-1.1-4.74h0c-.07,1.64-.12,3.51-.21,5l-.22,4.61h-2.54l.78-12.14h3.65l1.19,4c.38,1.41.76,2.92,1,4.34h.05c.34-1.4.76-3,1.15-4.36l1.3-4h3.58l.67,12.14h-2.68Z"/><path d="M835.36,425.49a24.79,24.79,0,0,1,3.71-.25,7.83,7.83,0,0,1,5,1.29,5.39,5.39,0,0,1,2.05,4.58,6.15,6.15,0,0,1-2,4.91,8.67,8.67,0,0,1-5.6,1.57,23.66,23.66,0,0,1-3.11-.18Zm2.75,9.9a4.6,4.6,0,0,0,1,.06c2.48,0,4.1-1.35,4.1-4.25a3.49,3.49,0,0,0-3.82-3.86,6,6,0,0,0-1.24.11Z"/><path d="M850.19,425.33v12.13h-2.75V425.33Z"/><path d="M862.38,432.82c-.06-1.46-.11-3.22-.11-5h0c-.38,1.55-.89,3.28-1.35,4.7l-1.48,4.74h-2.14l-1.3-4.7c-.4-1.43-.81-3.15-1.1-4.74h0c-.08,1.64-.13,3.51-.22,5l-.22,4.61h-2.53l.77-12.13h3.65l1.19,4.05c.38,1.4.76,2.92,1,4.34h0c.35-1.41.76-3,1.16-4.36l1.29-4h3.58l.67,12.13h-2.68Z"/><path d="M877.16,432.82c-.06-1.46-.11-3.22-.11-5H877c-.37,1.55-.88,3.28-1.35,4.7l-1.47,4.74H872l-1.29-4.7c-.4-1.43-.81-3.15-1.1-4.74h0c-.07,1.64-.12,3.51-.21,5l-.22,4.61h-2.54l.78-12.13h3.65l1.19,4.05c.38,1.4.76,2.92,1,4.34h.05c.34-1.41.76-3,1.15-4.36l1.3-4h3.58l.67,12.13h-2.68Z"/><path d="M59.75,218.67A40.61,40.61,0,0,1,55,217a2.69,2.69,0,0,0-.84-.18c-2.74-.18-5.3-2.19-5.3-6.16,0-3.63,2.31-6.37,5.93-6.37s5.74,2.81,5.74,6.12c0,2.76-1.28,4.7-2.88,5.42v.07c.94.27,2,.49,2.94.69Zm-2.16-8.19c0-2.21-1-4-2.91-4s-3,1.84-3,4.1,1.1,4.07,2.94,4.07S57.59,212.86,57.59,210.48Z"/><path d="M61.93,213.76a7,7,0,0,0,3,.75c1.26,0,1.93-.52,1.93-1.31s-.58-1.19-2-1.71c-2-.7-3.33-1.82-3.33-3.58,0-2.07,1.73-3.66,4.59-3.66a7.52,7.52,0,0,1,3.1.61l-.61,2.22a5.69,5.69,0,0,0-2.54-.58c-1.19,0-1.76.54-1.76,1.17,0,.78.68,1.12,2.25,1.71,2.14.79,3.15,1.91,3.15,3.62,0,2-1.57,3.76-4.9,3.76a8.05,8.05,0,0,1-3.44-.73Z"/><path d="M71.11,204.45h7.42v2.25H73.86v2.77h4.36v2.23H73.86v4.88H71.11Z"/><path d="M80.14,204.61a23.07,23.07,0,0,1,3.71-.25,5.8,5.8,0,0,1,3.71,1,3.53,3.53,0,0,1,1.3,2.81A3.87,3.87,0,0,1,87.74,211a5.62,5.62,0,0,1-3.94,1.28,6.27,6.27,0,0,1-.94-.06v4.34H80.14Zm2.72,5.51a4.52,4.52,0,0,0,.92.07c1.46,0,2.36-.74,2.36-2s-.77-1.78-2.14-1.78a4.41,4.41,0,0,0-1.14.11Z"/><path d="M89.72,216.58v-1.65l1.51-1.37c2.56-2.29,3.8-3.6,3.84-5,0-1-.58-1.71-1.93-1.71a4.21,4.21,0,0,0-2.5,1l-.78-2a6.47,6.47,0,0,1,3.84-1.21c2.65,0,4.1,1.55,4.1,3.68,0,2-1.42,3.52-3.11,5l-1.08.9v0H98v2.25Z"/><path d="M99.08,213.52a3.11,3.11,0,0,1,2.09-2.93v-.06A2.82,2.82,0,0,1,99.48,208c0-2,1.78-3.3,4.12-3.3,2.74,0,3.87,1.59,3.87,3a2.84,2.84,0,0,1-1.69,2.57v.06a3.09,3.09,0,0,1,2.14,2.91c0,2.13-1.78,3.55-4.5,3.55C100.45,216.78,99.08,215.11,99.08,213.52Zm6-.09c0-1-.76-1.64-1.84-1.92a1.77,1.77,0,0,0-1.42,1.74,1.6,1.6,0,0,0,1.66,1.64A1.47,1.47,0,0,0,105.13,213.43Zm-3.08-5.54c0,.79.72,1.29,1.66,1.58A1.6,1.6,0,0,0,104.9,208a1.35,1.35,0,0,0-1.43-1.44A1.3,1.3,0,0,0,102.05,207.89Z"/><path d="M59.75,286.49A40.61,40.61,0,0,1,55,284.78a3,3,0,0,0-.84-.18c-2.74-.18-5.3-2.19-5.3-6.15,0-3.64,2.31-6.38,5.93-6.38s5.74,2.81,5.74,6.12c0,2.76-1.28,4.7-2.88,5.42v.08c.94.27,2,.48,2.94.68Zm-2.16-8.19c0-2.21-1-4.05-2.91-4.05s-3,1.84-3,4.11,1.1,4.07,2.94,4.07S57.59,280.68,57.59,278.3Z"/><path d="M61.93,281.58a7,7,0,0,0,3,.76c1.26,0,1.93-.53,1.93-1.32s-.58-1.19-2-1.71c-2-.7-3.33-1.82-3.33-3.58,0-2.07,1.73-3.66,4.59-3.66a7.52,7.52,0,0,1,3.1.61l-.61,2.22a5.83,5.83,0,0,0-2.54-.58c-1.19,0-1.76.54-1.76,1.17s.68,1.12,2.25,1.71c2.14.8,3.15,1.91,3.15,3.62,0,2-1.57,3.77-4.9,3.77a7.89,7.89,0,0,1-3.44-.74Z"/><path d="M71.11,272.27h7.42v2.25H73.86v2.77h4.36v2.24H73.86v4.88H71.11Z"/><path d="M80.14,272.43a23.07,23.07,0,0,1,3.71-.25,5.8,5.8,0,0,1,3.71,1,3.53,3.53,0,0,1,1.3,2.81,3.87,3.87,0,0,1-1.12,2.88,5.62,5.62,0,0,1-3.94,1.28,8.2,8.2,0,0,1-.94-.05v4.34H80.14Zm2.72,5.51a3.89,3.89,0,0,0,.92.07c1.46,0,2.36-.73,2.36-2s-.77-1.78-2.14-1.78a4.41,4.41,0,0,0-1.14.11Z"/><path d="M89.72,284.41v-1.66l1.51-1.37c2.56-2.29,3.8-3.6,3.84-5,0-1-.58-1.71-1.93-1.71a4.27,4.27,0,0,0-2.5,1l-.78-2a6.47,6.47,0,0,1,3.84-1.21c2.65,0,4.1,1.55,4.1,3.68,0,2-1.42,3.53-3.11,5l-1.08.9v0H98v2.25Z"/><path d="M99.08,281.34a3.11,3.11,0,0,1,2.09-2.93v-.05a2.83,2.83,0,0,1-1.69-2.56c0-2,1.78-3.3,4.12-3.3,2.74,0,3.87,1.59,3.87,3a2.86,2.86,0,0,1-1.69,2.58v.05a3.1,3.1,0,0,1,2.14,2.92c0,2.12-1.78,3.54-4.5,3.54C100.45,284.6,99.08,282.93,99.08,281.34Zm6-.09c0-1-.76-1.63-1.84-1.92a1.77,1.77,0,0,0-1.42,1.74,1.6,1.6,0,0,0,1.66,1.64A1.47,1.47,0,0,0,105.13,281.25Zm-3.08-5.54c0,.79.72,1.3,1.66,1.58a1.6,1.6,0,0,0,1.19-1.49,1.35,1.35,0,0,0-1.43-1.44A1.3,1.3,0,0,0,102.05,275.71Z"/><path d="M59.75,352.68A42.53,42.53,0,0,1,55,351a3,3,0,0,0-.84-.18c-2.74-.18-5.3-2.19-5.3-6.15,0-3.64,2.31-6.38,5.93-6.38s5.74,2.81,5.74,6.12c0,2.76-1.28,4.7-2.88,5.42v.08c.94.27,2,.48,2.94.68Zm-2.16-8.2c0-2.21-1-4.05-2.91-4.05s-3,1.84-3,4.11,1.1,4.07,2.94,4.07S57.59,346.86,57.59,344.48Z"/><path d="M61.93,347.76a7,7,0,0,0,3,.76c1.26,0,1.93-.53,1.93-1.32s-.58-1.19-2-1.71c-2-.7-3.33-1.82-3.33-3.58,0-2.07,1.73-3.66,4.59-3.66a7.52,7.52,0,0,1,3.1.61l-.61,2.22a5.83,5.83,0,0,0-2.54-.58c-1.19,0-1.76.54-1.76,1.17s.68,1.12,2.25,1.71c2.14.8,3.15,1.91,3.15,3.62,0,2-1.57,3.77-4.9,3.77a7.89,7.89,0,0,1-3.44-.74Z"/><path d="M71.11,338.45h7.42v2.25H73.86v2.77h4.36v2.24H73.86v4.88H71.11Z"/><path d="M80.14,338.61a23.07,23.07,0,0,1,3.71-.25,5.86,5.86,0,0,1,3.71,1,3.54,3.54,0,0,1,1.3,2.81A3.87,3.87,0,0,1,87.74,345a5.62,5.62,0,0,1-3.94,1.28,8.2,8.2,0,0,1-.94-.05v4.34H80.14Zm2.72,5.51a3.89,3.89,0,0,0,.92.07c1.46,0,2.36-.73,2.36-2s-.77-1.78-2.14-1.78a4.92,4.92,0,0,0-1.14.11Z"/><path d="M89.72,350.59v-1.66l1.51-1.37c2.56-2.29,3.8-3.6,3.84-5,0-.95-.58-1.71-1.93-1.71a4.27,4.27,0,0,0-2.5,1l-.78-2a6.54,6.54,0,0,1,3.84-1.2c2.65,0,4.1,1.54,4.1,3.67,0,2-1.42,3.53-3.11,5l-1.08.9v0H98v2.25Z"/><path d="M99.08,347.53a3.11,3.11,0,0,1,2.09-2.94v0A2.83,2.83,0,0,1,99.48,342c0-2,1.78-3.29,4.12-3.29,2.74,0,3.87,1.58,3.87,3a2.86,2.86,0,0,1-1.69,2.58v.05a3.11,3.11,0,0,1,2.14,2.92c0,2.12-1.78,3.54-4.5,3.54C100.45,350.78,99.08,349.11,99.08,347.53Zm6-.09c0-1-.76-1.64-1.84-1.93a1.77,1.77,0,0,0-1.42,1.75,1.6,1.6,0,0,0,1.66,1.63A1.47,1.47,0,0,0,105.13,347.44Zm-3.08-5.55c0,.79.72,1.3,1.66,1.58A1.6,1.6,0,0,0,104.9,342a1.35,1.35,0,0,0-1.43-1.44A1.3,1.3,0,0,0,102.05,341.89Z"/><path d="M59.75,417.42A40.61,40.61,0,0,1,55,415.71a2.69,2.69,0,0,0-.84-.18c-2.74-.18-5.3-2.19-5.3-6.16,0-3.63,2.31-6.37,5.93-6.37s5.74,2.81,5.74,6.12c0,2.76-1.28,4.7-2.88,5.42v.07c.94.27,2,.49,2.94.69Zm-2.16-8.19c0-2.21-1-4.05-2.91-4.05s-3,1.84-3,4.1,1.1,4.07,2.94,4.07S57.59,411.61,57.59,409.23Z"/><path d="M61.93,412.51a7.11,7.11,0,0,0,3,.75c1.26,0,1.93-.52,1.93-1.31s-.58-1.19-2-1.71c-2-.7-3.33-1.82-3.33-3.59,0-2.07,1.73-3.65,4.59-3.65a7.52,7.52,0,0,1,3.1.61l-.61,2.22a5.69,5.69,0,0,0-2.54-.58c-1.19,0-1.76.54-1.76,1.17s.68,1.12,2.25,1.71c2.14.79,3.15,1.91,3.15,3.62,0,2-1.57,3.76-4.9,3.76a8.05,8.05,0,0,1-3.44-.73Z"/><path d="M71.11,403.2h7.42v2.25H73.86v2.77h4.36v2.23H73.86v4.88H71.11Z"/><path d="M80.14,403.36a23.07,23.07,0,0,1,3.71-.25,5.8,5.8,0,0,1,3.71,1,3.53,3.53,0,0,1,1.3,2.81,3.87,3.87,0,0,1-1.12,2.88,5.62,5.62,0,0,1-3.94,1.28,6.27,6.27,0,0,1-.94-.06v4.34H80.14Zm2.72,5.51a4.52,4.52,0,0,0,.92.07c1.46,0,2.36-.74,2.36-2s-.77-1.78-2.14-1.78a4.41,4.41,0,0,0-1.14.11Z"/><path d="M89.72,415.33v-1.65l1.51-1.37c2.56-2.29,3.8-3.6,3.84-5,0-1-.58-1.71-1.93-1.71a4.21,4.21,0,0,0-2.5,1l-.78-2a6.47,6.47,0,0,1,3.84-1.21c2.65,0,4.1,1.55,4.1,3.68,0,2-1.42,3.52-3.11,5l-1.08.9v0H98v2.25Z"/><path d="M99.08,412.27a3.11,3.11,0,0,1,2.09-2.93v-.06a2.82,2.82,0,0,1-1.69-2.55c0-2,1.78-3.3,4.12-3.3,2.74,0,3.87,1.59,3.87,3a2.84,2.84,0,0,1-1.69,2.57v.06a3.09,3.09,0,0,1,2.14,2.91c0,2.13-1.78,3.55-4.5,3.55C100.45,415.53,99.08,413.86,99.08,412.27Zm6-.09c0-1-.76-1.64-1.84-1.92a1.77,1.77,0,0,0-1.42,1.74,1.6,1.6,0,0,0,1.66,1.64A1.47,1.47,0,0,0,105.13,412.18Zm-3.08-5.54c0,.79.72,1.29,1.66,1.58a1.6,1.6,0,0,0,1.19-1.49,1.35,1.35,0,0,0-1.43-1.44A1.3,1.3,0,0,0,102.05,406.64Z"/><path d="M829.55,329.25c0,2.31-1.41,3.54-3.13,3.54s-3-1.38-3-3.41,1.33-3.54,3.13-3.54S829.55,327.25,829.55,329.25Zm-5.23.11c0,1.43.78,2.72,2.15,2.72s2.16-1.27,2.16-2.79c0-1.34-.7-2.74-2.15-2.74S824.32,327.88,824.32,329.36Z"/><path d="M830.4,329.43c0-.62,0-1.12,0-1.58h.79l0,.83h0a1.9,1.9,0,0,1,1.72-.94,2.19,2.19,0,0,1,2.05,2.45c0,1.74-1.06,2.6-2.2,2.6a1.7,1.7,0,0,1-1.49-.76h0v2.63h-.87Zm.87,1.28a2,2,0,0,0,0,.36,1.36,1.36,0,0,0,1.32,1c.93,0,1.47-.76,1.47-1.87s-.51-1.79-1.44-1.79a1.4,1.4,0,0,0-1.33,1.09,1.43,1.43,0,0,0-.06.36Z"/><path d="M836.9,326.46v1.39h1.26v.67H836.9v2.6c0,.6.17.94.66.94a2,2,0,0,0,.51-.06l0,.66a2.15,2.15,0,0,1-.78.12,1.22,1.22,0,0,1-1-.37,1.79,1.79,0,0,1-.34-1.26v-2.63h-.75v-.67H836v-1.16Z"/><path d="M839.88,326.49a.55.55,0,0,1-1.09,0,.54.54,0,0,1,.55-.55A.52.52,0,0,1,839.88,326.49Zm-1,6.19v-4.83h.88v4.83Z"/><path d="M845.37,330.23a2.36,2.36,0,0,1-2.41,2.56,2.3,2.3,0,0,1-2.32-2.49,2.36,2.36,0,0,1,2.4-2.56A2.29,2.29,0,0,1,845.37,330.23Zm-3.84,0c0,1.06.61,1.86,1.47,1.86s1.47-.79,1.47-1.88c0-.81-.41-1.85-1.45-1.85S841.53,329.36,841.53,330.27Z"/><path d="M846.23,329.16c0-.5,0-.91,0-1.31H847l0,.8h0a1.78,1.78,0,0,1,1.6-.91c.67,0,1.71.4,1.71,2.06v2.88h-.88V329.9c0-.78-.29-1.43-1.12-1.43a1.25,1.25,0,0,0-1.18.9,1.27,1.27,0,0,0-.06.41v2.9h-.88Z"/><path d="M854.21,332.68l-.07-.61h0a1.8,1.8,0,0,1-1.48.72,1.38,1.38,0,0,1-1.48-1.39c0-1.17,1-1.8,2.91-1.79v-.1a1,1,0,0,0-1.1-1.12,2.41,2.41,0,0,0-1.26.36l-.2-.58a3,3,0,0,1,1.59-.43c1.48,0,1.84,1,1.84,2v1.8a6.81,6.81,0,0,0,.08,1.16Zm-.13-2.47c-1,0-2.05.15-2.05,1.09a.78.78,0,0,0,.83.84,1.2,1.2,0,0,0,1.17-.81.92.92,0,0,0,.05-.28Z"/><path d="M856.1,325.59H857v7.09h-.88Z"/><path d="M861,326v6.73h-.87V326Z"/><path d="M862.32,329.16c0-.5,0-.91,0-1.31h.78l.05.8h0a1.78,1.78,0,0,1,1.6-.91c.67,0,1.71.4,1.71,2.06v2.88h-.88V329.9c0-.78-.29-1.43-1.12-1.43a1.25,1.25,0,0,0-1.18.9,1.27,1.27,0,0,0-.06.41v2.9h-.88Z"/><path d="M867.58,332.68c0-.33,0-.82,0-1.25v-5.84h.87v3h0a1.8,1.8,0,0,1,1.65-.89,2.17,2.17,0,0,1,2,2.47,2.3,2.3,0,0,1-2.17,2.58,1.72,1.72,0,0,1-1.62-.91h0l0,.8Zm.91-1.94a1.65,1.65,0,0,0,0,.32,1.36,1.36,0,0,0,1.32,1c.92,0,1.47-.75,1.47-1.86s-.5-1.79-1.44-1.79a1.4,1.4,0,0,0-1.34,1.08,1.73,1.73,0,0,0,0,.36Z"/><path d="M877.44,330.23a2.36,2.36,0,0,1-2.41,2.56,2.3,2.3,0,0,1-2.32-2.49,2.36,2.36,0,0,1,2.4-2.56A2.29,2.29,0,0,1,877.44,330.23Zm-3.84,0c0,1.06.61,1.86,1.47,1.86s1.47-.79,1.47-1.88c0-.81-.41-1.85-1.45-1.85S873.6,329.36,873.6,330.27Z"/><path d="M881,332.68l-.07-.61h0a1.8,1.8,0,0,1-1.48.72,1.38,1.38,0,0,1-1.48-1.39c0-1.17,1-1.8,2.91-1.79v-.1a1,1,0,0,0-1.1-1.12,2.41,2.41,0,0,0-1.26.36l-.2-.58a3,3,0,0,1,1.59-.43c1.48,0,1.84,1,1.84,2v1.8a6.81,6.81,0,0,0,.08,1.16Zm-.13-2.47c-1,0-2.05.15-2.05,1.09a.78.78,0,0,0,.83.84,1.2,1.2,0,0,0,1.17-.81.92.92,0,0,0,.05-.28Z"/><path d="M882.87,329.36c0-.57,0-1.06,0-1.51h.77l0,.95h0a1.45,1.45,0,0,1,1.34-1.06,1,1,0,0,1,.25,0v.83a1.32,1.32,0,0,0-.3,0,1.23,1.23,0,0,0-1.18,1.13,2.37,2.37,0,0,0,0,.41v2.57h-.87Z"/><path d="M890,325.59v5.84c0,.43,0,.92,0,1.25h-.79l0-.84h0a1.79,1.79,0,0,1-1.65,1,2.2,2.2,0,0,1-2.07-2.45,2.32,2.32,0,0,1,2.17-2.6,1.62,1.62,0,0,1,1.46.74h0v-2.89Zm-.88,4.22a1.53,1.53,0,0,0,0-.36,1.29,1.29,0,0,0-1.27-1c-.91,0-1.45.8-1.45,1.86s.48,1.79,1.43,1.79a1.32,1.32,0,0,0,1.29-1.05,1.53,1.53,0,0,0,0-.38Z"/><path d="M898.84,329.25c0,2.31-1.41,3.54-3.13,3.54s-3-1.38-3-3.41,1.33-3.54,3.13-3.54S898.84,327.25,898.84,329.25Zm-5.23.11c0,1.43.78,2.72,2.15,2.72s2.16-1.27,2.16-2.79c0-1.34-.7-2.74-2.15-2.74S893.61,327.88,893.61,329.36Z"/><path d="M904.43,332.46a4.32,4.32,0,0,1-1.78.32,3.15,3.15,0,0,1-3.33-3.4,3.35,3.35,0,0,1,3.52-3.54,3.61,3.61,0,0,1,1.6.3l-.21.71a3.17,3.17,0,0,0-1.36-.28,2.51,2.51,0,0,0-2.63,2.78,2.45,2.45,0,0,0,2.59,2.7,3.48,3.48,0,0,0,1.42-.28Z"/><path d="M909.17,331.36c0,.5,0,.94,0,1.32h-.78l0-.79h0a1.82,1.82,0,0,1-1.6.9c-.76,0-1.67-.42-1.67-2.12v-2.82H906v2.67c0,.92.28,1.54,1.08,1.54a1.27,1.27,0,0,0,1.16-.8,1.29,1.29,0,0,0,.08-.45v-3h.88Z"/><path d="M910.41,326h.87v6h2.88v.73h-3.75Z"/><path d="M915.83,326.49a.55.55,0,0,1-1.09,0,.54.54,0,0,1,.55-.55A.52.52,0,0,1,915.83,326.49Zm-1,6.19v-4.83h.88v4.83Z"/><path d="M916.94,329.16c0-.5,0-.91,0-1.31h.78l.05.8h0a1.78,1.78,0,0,1,1.6-.91c.67,0,1.71.4,1.71,2.06v2.88h-.88V329.9c0-.78-.29-1.43-1.12-1.43a1.25,1.25,0,0,0-1.18.9,1.27,1.27,0,0,0-.06.41v2.9h-.88Z"/><path d="M923.11,330.06h0l.43-.54,1.42-1.67H926l-1.87,2,2.13,2.84h-1.07l-1.67-2.32-.45.5v1.82h-.87v-7.09h.87Z"/><path d="M929.45,326v6.73h-.87V326Z"/><path d="M930.79,329.16c0-.5,0-.91,0-1.31h.78l.05.8h0a1.78,1.78,0,0,1,1.6-.91c.67,0,1.71.4,1.71,2.06v2.88H934V329.9c0-.78-.29-1.43-1.12-1.43a1.25,1.25,0,0,0-1.18.9,1.27,1.27,0,0,0-.06.41v2.9h-.88Z"/><path d="M937.11,326.46v1.39h1.26v.67h-1.26v2.6c0,.6.17.94.66.94a2,2,0,0,0,.51-.06l0,.66a2.15,2.15,0,0,1-.78.12,1.22,1.22,0,0,1-.95-.37,1.79,1.79,0,0,1-.34-1.26v-2.63h-.75v-.67h.75v-1.16Z"/><path d="M939.54,330.42a1.55,1.55,0,0,0,1.66,1.68,3.18,3.18,0,0,0,1.34-.25l.15.63a3.92,3.92,0,0,1-1.61.3,2.25,2.25,0,0,1-2.38-2.44,2.35,2.35,0,0,1,2.27-2.6,2.05,2.05,0,0,1,2,2.28,3.13,3.13,0,0,1,0,.4Zm2.58-.62a1.25,1.25,0,0,0-1.22-1.43,1.46,1.46,0,0,0-1.35,1.43Z"/><path d="M943.81,329.36c0-.57,0-1.06,0-1.51h.77l0,.95h0a1.45,1.45,0,0,1,1.34-1.06,1,1,0,0,1,.25,0v.83a1.32,1.32,0,0,0-.3,0,1.23,1.23,0,0,0-1.18,1.13,2.37,2.37,0,0,0,0,.41v2.57h-.87Z"/><path d="M947.22,332.68v-4.16h-.68v-.67h.68v-.23a2.28,2.28,0,0,1,.56-1.69,1.68,1.68,0,0,1,1.18-.45,2,2,0,0,1,.75.14l-.12.68a1.31,1.31,0,0,0-.56-.11c-.75,0-.94.66-.94,1.4v.26h1.17v.67h-1.17v4.16Z"/><path d="M952.48,332.68l-.07-.61h0a1.8,1.8,0,0,1-1.48.72,1.38,1.38,0,0,1-1.48-1.39c0-1.17,1-1.8,2.91-1.79v-.1a1,1,0,0,0-1.1-1.12,2.41,2.41,0,0,0-1.26.36l-.2-.58a3,3,0,0,1,1.59-.43c1.48,0,1.84,1,1.84,2v1.8a6.81,6.81,0,0,0,.08,1.16Zm-.13-2.47c-1,0-2.05.15-2.05,1.09a.78.78,0,0,0,.83.84,1.2,1.2,0,0,0,1.17-.81.92.92,0,0,0,.05-.28Z"/><path d="M957.82,332.5a3.24,3.24,0,0,1-1.39.28,2.3,2.3,0,0,1-2.41-2.47,2.46,2.46,0,0,1,2.6-2.56,2.94,2.94,0,0,1,1.22.25l-.2.68a2,2,0,0,0-1-.23,1.82,1.82,0,0,0,0,3.63,2.5,2.5,0,0,0,1.08-.24Z"/><path d="M959,330.42a1.55,1.55,0,0,0,1.66,1.68,3.18,3.18,0,0,0,1.34-.25l.15.63a3.92,3.92,0,0,1-1.61.3,2.25,2.25,0,0,1-2.38-2.44,2.35,2.35,0,0,1,2.27-2.6,2.05,2.05,0,0,1,2,2.28,3.13,3.13,0,0,1,0,.4Zm2.58-.62a1.25,1.25,0,0,0-1.22-1.43A1.46,1.46,0,0,0,959,329.8Z"/><path d="M963.18,331.78a2.31,2.31,0,0,0,1.16.35c.64,0,.94-.32.94-.72s-.25-.65-.9-.89c-.87-.31-1.28-.78-1.28-1.36a1.49,1.49,0,0,1,1.67-1.42,2.42,2.42,0,0,1,1.19.3l-.22.64a1.88,1.88,0,0,0-1-.28c-.52,0-.81.3-.81.66s.29.58.92.82c.84.31,1.27.73,1.27,1.45s-.66,1.45-1.81,1.45a2.76,2.76,0,0,1-1.36-.33Z"/><path d="M482.92,208.86h15.59v5.3h-9.07v4.49H498v5.26h-8.53v9.22h-6.52Z"/><path d="M501.64,209.19a50.65,50.65,0,0,1,8-.51c3.49,0,6,.62,7.67,1.91a7.3,7.3,0,0,1,2.77,5.87,7.92,7.92,0,0,1-2.34,6c-2,1.77-4.83,2.52-8.1,2.52-.61,0-1.19,0-1.59-.07v8.25h-6.44Zm6.44,10.72a12.48,12.48,0,0,0,1.48.08c2.56,0,4.14-1.3,4.14-3.39,0-1.8-1.22-3-3.67-3a10.39,10.39,0,0,0-1.95.14Z"/><path d="M543.43,232a28.29,28.29,0,0,1-8.35,1.41c-4.78,0-8-1.19-10.22-3.28a11.9,11.9,0,0,1-3.46-8.78c0-8.42,6.3-12.71,14.19-12.71a17.51,17.51,0,0,1,7,1.19l-1.3,5.18a14,14,0,0,0-5.76-1c-4,0-7.31,2.08-7.31,7,0,4.54,2.92,7.17,6.91,7.17a7.68,7.68,0,0,0,2-.22v-4.17h-3.24v-5h9.5Z"/><path d="M553,227.51l-1.37,5.62h-6.73l7-24.27h8.64l7.24,24.27h-7l-1.55-5.62Zm5.36-4.82-1.12-4.36c-.36-1.37-.82-3.35-1.18-4.79H556c-.36,1.44-.72,3.46-1.08,4.83l-1,4.32Z"/><path d="M477.34,241.8v12.14h-1.56V241.8Z"/><path d="M479.75,247.58c0-.9,0-1.64-.07-2.36h1.41l.09,1.44h0a3.2,3.2,0,0,1,2.88-1.64c1.21,0,3.08.72,3.08,3.71v5.21h-1.58v-5c0-1.4-.52-2.57-2-2.57a2.25,2.25,0,0,0-2.12,1.62,2.1,2.1,0,0,0-.11.74v5.24h-1.59Z"/><path d="M491.13,242.72v2.5h2.27v1.21h-2.27v4.7c0,1.08.31,1.69,1.19,1.69a3.31,3.31,0,0,0,.92-.11l.07,1.19a3.8,3.8,0,0,1-1.41.22,2.22,2.22,0,0,1-1.71-.67,3.23,3.23,0,0,1-.61-2.27v-4.75h-1.35v-1.21h1.35v-2.09Z"/><path d="M495.5,249.87a2.79,2.79,0,0,0,3,3,5.8,5.8,0,0,0,2.42-.45l.27,1.14a7.13,7.13,0,0,1-2.9.54,4.05,4.05,0,0,1-4.29-4.4c0-2.62,1.55-4.7,4.09-4.7,2.84,0,3.6,2.51,3.6,4.11,0,.32,0,.58-.05.74Zm4.65-1.14a2.25,2.25,0,0,0-2.2-2.57,2.63,2.63,0,0,0-2.43,2.57Z"/><path d="M503.19,241.15h1.58v12.79h-1.58Z"/><path d="M510.19,252a5.57,5.57,0,0,0,2.81.79c1.6,0,2.54-.85,2.54-2.07s-.65-1.78-2.29-2.41c-2-.7-3.2-1.73-3.2-3.44,0-1.89,1.56-3.3,3.92-3.3a5.47,5.47,0,0,1,2.69.6l-.44,1.28a4.73,4.73,0,0,0-2.3-.58c-1.66,0-2.29,1-2.29,1.82,0,1.13.74,1.69,2.41,2.34,2.06.79,3.1,1.78,3.1,3.56s-1.38,3.5-4.25,3.5a6.24,6.24,0,0,1-3.09-.78Z"/><path d="M520.63,242.72v2.5h2.27v1.21h-2.27v4.7c0,1.08.31,1.69,1.19,1.69a3.31,3.31,0,0,0,.92-.11l.07,1.19a3.74,3.74,0,0,1-1.4.22,2.19,2.19,0,0,1-1.71-.67,3.23,3.23,0,0,1-.62-2.27v-4.75h-1.35v-1.21h1.35v-2.09Z"/><path d="M524.23,247.94c0-1,0-1.91-.07-2.72h1.39l.05,1.71h.07a2.62,2.62,0,0,1,2.41-1.91,1.53,1.53,0,0,1,.45.06v1.49a2.76,2.76,0,0,0-.54,0,2.23,2.23,0,0,0-2.12,2,4.14,4.14,0,0,0-.07.74v4.65h-1.57Z"/><path d="M534.4,253.94l-.12-1.1h-.06a3.24,3.24,0,0,1-2.66,1.3,2.49,2.49,0,0,1-2.67-2.51c0-2.1,1.88-3.26,5.24-3.24v-.18a1.79,1.79,0,0,0-2-2,4.43,4.43,0,0,0-2.27.65l-.36-1a5.41,5.41,0,0,1,2.87-.78c2.66,0,3.31,1.82,3.31,3.57v3.26a13.31,13.31,0,0,0,.14,2.09Zm-.23-4.45c-1.73,0-3.69.27-3.69,2A1.4,1.4,0,0,0,532,253a2.17,2.17,0,0,0,2.11-1.45,1.89,1.89,0,0,0,.09-.51Z"/><path d="M539.64,242.72v2.5h2.27v1.21h-2.27v4.7c0,1.08.31,1.69,1.19,1.69a3.31,3.31,0,0,0,.92-.11l.07,1.19a3.8,3.8,0,0,1-1.41.22,2.22,2.22,0,0,1-1.71-.67,3.23,3.23,0,0,1-.61-2.27v-4.75h-1.35v-1.21h1.35v-2.09Z"/><path d="M545,242.77a.93.93,0,0,1-1,1,1,1,0,0,1-1-1,1,1,0,0,1,1-1A.94.94,0,0,1,545,242.77Zm-1.76,11.17v-8.72h1.58v8.72Z"/><path d="M547.74,245.22,549,247.1c.33.48.6.93.88,1.42h.06c.29-.52.57-1,.86-1.44l1.23-1.86h1.71l-3,4.22,3.06,4.5H552l-1.28-2c-.34-.5-.63-1-.94-1.51h0c-.29.52-.6,1-.92,1.51l-1.26,2h-1.75l3.1-4.45L546,245.22Z"/><path d="M561.19,243.71h0l-2,1.1-.31-1.21,2.56-1.37h1.35v11.71h-1.53Z"/><path d="M574.31,248c0,4-1.48,6.18-4.07,6.18-2.29,0-3.84-2.15-3.87-6s1.69-6.08,4.07-6.08S574.31,244.23,574.31,248Zm-6.36.18c0,3,.94,4.77,2.38,4.77,1.62,0,2.39-1.89,2.39-4.88s-.73-4.77-2.37-4.77C569,243.26,568,245,568,248.14Z"/><path d="M506.56,270.21c-.09-1.69-.2-3.73-.18-5.24h-.06c-.41,1.42-.91,2.93-1.53,4.61l-2.14,5.89h-1.19l-2-5.78c-.58-1.71-1.06-3.28-1.4-4.72h0c0,1.51-.13,3.55-.23,5.36l-.33,5.21H496l.84-12.14h2l2.07,5.87c.51,1.5.92,2.83,1.23,4.09h.05c.31-1.23.74-2.56,1.28-4.09l2.16-5.87h2l.76,12.14h-1.54Z"/><path d="M517,275.54l-1.55-2.69c-.63-1-1-1.69-1.4-2.39h0c-.34.7-.69,1.35-1.32,2.41l-1.45,2.67h-1.8l3.7-6.14-3.56-6h1.82l1.6,2.85c.45.79.79,1.4,1.12,2.05h0c.34-.72.65-1.28,1.1-2.05l1.66-2.85h1.8L515,269.31l3.78,6.23Z"/><path d="M519.62,275.54v-1l1.25-1.2c3-2.85,4.34-4.36,4.35-6.12A2.09,2.09,0,0,0,522.9,265a4,4,0,0,0-2.48,1l-.51-1.12a5.15,5.15,0,0,1,3.31-1.18,3.29,3.29,0,0,1,3.59,3.4c0,2.16-1.57,3.91-4,6.28l-.93.87v0h5.26v1.32Z"/><path d="M531.85,265.31h0l-2,1.1-.31-1.21,2.56-1.37h1.35v11.71h-1.53Z"/><path d="M545,269.56c0,4-1.48,6.18-4.07,6.18-2.29,0-3.84-2.15-3.87-6s1.69-6.08,4.07-6.08S545,265.83,545,269.56Zm-6.36.18c0,3,.94,4.77,2.38,4.77,1.62,0,2.39-1.89,2.39-4.88s-.73-4.77-2.37-4.77C539.62,264.86,538.61,266.55,538.61,269.74Z"/><path d="M553.75,269.56c0,4-1.47,6.18-4.07,6.18-2.28,0-3.83-2.15-3.87-6s1.7-6.08,4.07-6.08S553.75,265.83,553.75,269.56Zm-6.35.18c0,3,.93,4.77,2.37,4.77,1.62,0,2.4-1.89,2.4-4.88s-.74-4.77-2.38-4.77C548.41,264.86,547.4,266.55,547.4,269.74Z"/><rect class="u" x="1010.09" y="32.99" width="90.1" height="56.09"/><path d="M1032.24,54.53a22,22,0,0,1,3.71-.25,5.82,5.82,0,0,1,3.71,1,3.55,3.55,0,0,1,1.29,2.81,3.9,3.9,0,0,1-1.11,2.88,5.64,5.64,0,0,1-3.94,1.28,6.27,6.27,0,0,1-.94-.06V66.5h-2.72ZM1035,60a4.45,4.45,0,0,0,.92.07c1.46,0,2.36-.74,2.36-2s-.78-1.78-2.15-1.78a5.06,5.06,0,0,0-1.13.1Z"/><path d="M1050.42,62a4.42,4.42,0,0,1-4.64,4.7,4.31,4.31,0,0,1-4.56-4.54,4.4,4.4,0,0,1,4.7-4.66A4.28,4.28,0,0,1,1050.42,62Zm-6.37.09c0,1.51.63,2.65,1.8,2.65s1.75-1.07,1.75-2.65c0-1.31-.51-2.65-1.75-2.65S1044.05,60.79,1044.05,62.09Z"/><path d="M1053.39,57.7l.7,3.6c.18.92.36,1.89.51,2.9h0c.18-1,.44-2,.65-2.88l.94-3.62h2.16l.88,3.51c.23,1,.47,2,.65,3h0c.12-1,.3-2,.5-3l.76-3.49h2.68l-2.7,8.8h-2.58l-.83-3.1c-.21-.86-.37-1.65-.55-2.73h0a19,19,0,0,1-.58,2.73l-.88,3.1h-2.57l-2.56-8.8Z"/><path d="M1066.55,63c.09,1.14,1.21,1.68,2.48,1.68a7.81,7.81,0,0,0,2.43-.36l.36,1.85a8.65,8.65,0,0,1-3.18.54c-3,0-4.7-1.73-4.7-4.48a4.4,4.4,0,0,1,4.45-4.7c2.84,0,3.92,2.21,3.92,4.39a6.09,6.09,0,0,1-.09,1.08Zm3.22-1.87a1.59,1.59,0,0,0-1.55-1.78,1.79,1.79,0,0,0-1.69,1.78Z"/><path d="M1073.5,60.6c0-1.3,0-2.15-.08-2.9h2.36l.09,1.62h.08a2.58,2.58,0,0,1,2.37-1.82,3.45,3.45,0,0,1,.58,0v2.58a3.64,3.64,0,0,0-.74-.07,1.76,1.76,0,0,0-1.87,1.38,3,3,0,0,0-.06.62V66.5h-2.73Z"/><rect class="u" x="1010.09" y="101" width="90.1" height="56.09"/><path d="M1032.24,122.54a23.07,23.07,0,0,1,3.71-.25,5.88,5.88,0,0,1,3.71,1,3.57,3.57,0,0,1,1.29,2.81,3.86,3.86,0,0,1-1.11,2.88,5.59,5.59,0,0,1-3.94,1.28,8.2,8.2,0,0,1-.94,0v4.34h-2.72Zm2.72,5.51a3.76,3.76,0,0,0,.92.08c1.46,0,2.36-.74,2.36-2s-.78-1.79-2.15-1.79a4.89,4.89,0,0,0-1.13.11Z"/><path d="M1050.42,130a4.42,4.42,0,0,1-4.64,4.7,4.32,4.32,0,0,1-4.56-4.54,4.4,4.4,0,0,1,4.7-4.67A4.29,4.29,0,0,1,1050.42,130Zm-6.37.09c0,1.51.63,2.64,1.8,2.64s1.75-1.06,1.75-2.64c0-1.32-.51-2.65-1.75-2.65S1044.05,128.81,1044.05,130.11Z"/><path d="M1053.39,125.71l.7,3.6c.18.92.36,1.89.51,2.9h0c.18-1,.44-2,.65-2.88l.94-3.62h2.16l.88,3.51c.23,1,.47,2,.65,3h0c.12-1,.3-2,.5-3l.76-3.5h2.68l-2.7,8.81h-2.58l-.83-3.1c-.21-.86-.37-1.66-.55-2.74h0a19.43,19.43,0,0,1-.58,2.74l-.88,3.1h-2.57l-2.56-8.81Z"/><path d="M1066.55,131c.09,1.13,1.21,1.67,2.48,1.67a7.53,7.53,0,0,0,2.43-.36l.36,1.86a8.65,8.65,0,0,1-3.18.54c-3,0-4.7-1.73-4.7-4.49a4.41,4.41,0,0,1,4.45-4.7c2.84,0,3.92,2.22,3.92,4.4a6.09,6.09,0,0,1-.09,1.08Zm3.22-1.87a1.6,1.6,0,0,0-1.55-1.79,1.8,1.8,0,0,0-1.69,1.79Z"/><path d="M1073.5,128.61c0-1.29,0-2.14-.08-2.9h2.36l.09,1.62h.08a2.6,2.6,0,0,1,3-1.78v2.58a3.55,3.55,0,0,0-.74-.08,1.75,1.75,0,0,0-1.87,1.39,2.93,2.93,0,0,0-.06.61v4.47h-2.73Z"/><rect class="v" x="1010.09" y="367.69" width="90.1" height="32.97"/><path d="M1045.77,374v5.44c0,1.62.61,2.45,1.71,2.45s1.73-.79,1.73-2.45V374h2.13v5.29c0,2.92-1.47,4.31-3.93,4.31s-3.79-1.32-3.79-4.33V374Z"/><path d="M1052.91,381.26a5.32,5.32,0,0,0,2.36.59c1,0,1.5-.41,1.5-1s-.45-.93-1.58-1.33c-1.57-.55-2.59-1.42-2.59-2.79,0-1.61,1.34-2.84,3.57-2.84a5.85,5.85,0,0,1,2.41.47l-.48,1.73a4.37,4.37,0,0,0-2-.45c-.93,0-1.37.42-1.37.91s.53.87,1.75,1.33c1.66.61,2.45,1.48,2.45,2.81,0,1.59-1.22,2.93-3.81,2.93a6.26,6.26,0,0,1-2.68-.57Z"/><path d="M1060.05,374.15a16,16,0,0,1,2.76-.2,5.24,5.24,0,0,1,2.78.53,2.06,2.06,0,0,1,1.14,1.85,2.13,2.13,0,0,1-1.56,2v0a2.35,2.35,0,0,1,1.88,2.32,2.52,2.52,0,0,1-1,2,6,6,0,0,1-3.71.85,16.44,16.44,0,0,1-2.31-.14Zm2.11,3.61h.7c1.12,0,1.72-.46,1.72-1.16s-.54-1.09-1.51-1.09a5.8,5.8,0,0,0-.91.05Zm0,4.19a6.3,6.3,0,0,0,.83,0c1,0,1.82-.37,1.82-1.36s-.86-1.33-1.92-1.33h-.73Z"/><path d="M1028.36,387.49a14.3,14.3,0,0,1,2.21-.17,4.65,4.65,0,0,1,3.28,1,3.7,3.7,0,0,1,1.14,2.9,4.25,4.25,0,0,1-1.17,3.14,4.94,4.94,0,0,1-3.57,1.16,16.84,16.84,0,0,1-1.89-.09Zm1,7.14a6.32,6.32,0,0,0,1,.06,3.11,3.11,0,0,0,3.45-3.43c0-1.9-1.07-3.11-3.28-3.11a6,6,0,0,0-1.22.1Z"/><path d="M1039.23,395.46l-.09-.73h0a2.16,2.16,0,0,1-1.78.86,1.64,1.64,0,0,1-1.77-1.66c0-1.41,1.24-2.17,3.49-2.16v-.12a1.21,1.21,0,0,0-1.32-1.35,2.82,2.82,0,0,0-1.51.44l-.24-.7a3.57,3.57,0,0,1,1.9-.52c1.78,0,2.21,1.22,2.21,2.38v2.17a7.38,7.38,0,0,0,.1,1.39Zm-.16-3c-1.15,0-2.46.18-2.46,1.31a.93.93,0,0,0,1,1,1.45,1.45,0,0,0,1.4-1,1,1,0,0,0,.06-.33Z"/><path d="M1042.67,388a.62.62,0,0,1-.67.64.63.63,0,0,1-.64-.64.64.64,0,0,1,.66-.66A.62.62,0,0,1,1042.67,388Zm-1.18,7.43v-5.8h1.06v5.8Z"/><path d="M1043.86,394.38a2.69,2.69,0,0,0,1.39.42c.77,0,1.13-.38,1.13-.86s-.3-.78-1.08-1.07c-1-.37-1.54-.95-1.54-1.64a1.8,1.8,0,0,1,2-1.71,2.9,2.9,0,0,1,1.42.36l-.26.77a2.32,2.32,0,0,0-1.19-.33c-.62,0-1,.36-1,.79s.35.69,1.1,1c1,.39,1.53.89,1.53,1.75,0,1-.79,1.74-2.17,1.74a3.27,3.27,0,0,1-1.63-.39Z"/><path d="M1048.84,389.66l1.27,3.43c.13.38.28.84.37,1.18h0c.1-.34.22-.79.37-1.21l1.15-3.4h1.11l-1.58,4.13c-.75,2-1.27,3-2,3.64a3,3,0,0,1-1.29.68l-.27-.89a2.8,2.8,0,0,0,.93-.51,3.32,3.32,0,0,0,.88-1.18.69.69,0,0,0,.09-.25.9.9,0,0,0-.08-.27l-2.14-5.35Z"/><path d="M1061.74,395.2a5.29,5.29,0,0,1-2.14.38,3.77,3.77,0,0,1-4-4.09,4,4,0,0,1,4.22-4.24,4.26,4.26,0,0,1,1.92.36l-.25.85a3.85,3.85,0,0,0-1.64-.34,3,3,0,0,0-3.15,3.34,2.94,2.94,0,0,0,3.11,3.25,4.24,4.24,0,0,0,1.7-.34Z"/><path d="M1062.71,387h1.06v3.62h0a2,2,0,0,1,.76-.75,2.15,2.15,0,0,1,1.07-.3c.78,0,2,.48,2,2.49v3.45h-1.05v-3.33c0-.94-.35-1.73-1.35-1.73a1.51,1.51,0,0,0-1.41,1.06,1.26,1.26,0,0,0-.07.5v3.5h-1.06Z"/><path d="M1072.28,395.46l-.08-.73h0a2.13,2.13,0,0,1-1.77.86,1.65,1.65,0,0,1-1.78-1.66c0-1.41,1.25-2.17,3.49-2.16v-.12a1.2,1.2,0,0,0-1.32-1.35,2.87,2.87,0,0,0-1.51.44l-.24-.7a3.64,3.64,0,0,1,1.91-.52c1.78,0,2.21,1.22,2.21,2.38v2.17a8.39,8.39,0,0,0,.09,1.39Zm-.15-3c-1.15,0-2.46.18-2.46,1.31a.93.93,0,0,0,1,1,1.45,1.45,0,0,0,1.4-1,1.36,1.36,0,0,0,.06-.33Z"/><path d="M1075.73,388a.62.62,0,0,1-.67.64.63.63,0,0,1-.64-.64.64.64,0,0,1,.66-.66A.62.62,0,0,1,1075.73,388Zm-1.18,7.43v-5.8h1.06v5.8Z"/><path d="M1077.06,391.23c0-.6,0-1.09,0-1.57h.94l.06,1h0a2.13,2.13,0,0,1,1.92-1.1c.81,0,2,.48,2,2.48v3.46h-1v-3.34c0-.94-.35-1.72-1.34-1.72a1.5,1.5,0,0,0-1.42,1.08,1.45,1.45,0,0,0-.07.49v3.49h-1.06Z"/><rect class="w" x="448.77" y="30.29" width="157.01" height="115.3"/><polyline class="x" points="605.78 139.59 605.78 145.59 599.78 145.59"/><line class="y" x1="596.63" y1="145.59" x2="456.35" y2="145.59"/><polyline class="x" points="454.77 145.59 448.77 145.59 448.77 139.59"/><line class="z" x1="448.77" y1="136.72" x2="448.77" y2="37.73"/><polyline class="x" points="448.77 36.29 448.77 30.29 454.77 30.29"/><line class="y" x1="457.92" y1="30.29" x2="598.21" y2="30.29"/><polyline class="x" points="599.78 30.29 605.78 30.29 605.78 36.29"/><line class="z" x1="605.78" y1="39.16" x2="605.78" y2="138.15"/><line class="aa" x1="564.87" y1="137.54" x2="564.87" y2="170.75"/><line class="ab" x1="500.43" y1="76.18" x2="500.43" y2="86.7"/><line class="ac" x1="500.43" y1="76.18" x2="500.43" y2="86.7"/><line class="ab" x1="565.19" y1="65.19" x2="565.19" y2="79.36"/><line class="ad" x1="565.19" y1="65.19" x2="565.19" y2="71.19"/><line class="ad" x1="565.19" y1="73.36" x2="565.19" y2="79.36"/><rect class="v" x="327.93" y="2" width="90.1" height="26.81"/><path d="M351.41,16.43c0-1.14-.08-2.51-.08-3.88h0c-.3,1.2-.69,2.55-1.05,3.65l-1.15,3.69h-1.67l-1-3.66c-.31-1.1-.63-2.45-.85-3.68h0c-.06,1.27-.1,2.73-.17,3.91L345.19,20h-2l.6-9.44h2.84l.93,3.15c.29,1.09.59,2.27.8,3.38h0c.26-1.09.59-2.34.89-3.39l1-3.14h2.79l.52,9.44h-2.09Z"/><path d="M357.13,11.29A1.06,1.06,0,0,1,356,12.35a1.07,1.07,0,1,1,0-2.14A1.06,1.06,0,0,1,357.13,11.29ZM354.93,20V13.19h2.13V20Z"/><path d="M363.56,19.87a5.13,5.13,0,0,1-1.9.31,3.32,3.32,0,0,1-3.63-3.5A3.57,3.57,0,0,1,362,13a5.21,5.21,0,0,1,1.63.26l-.34,1.59a2.78,2.78,0,0,0-1.19-.21,1.78,1.78,0,0,0-1.84,1.92,1.78,1.78,0,0,0,1.88,1.91,3.22,3.22,0,0,0,1.22-.21Z"/><path d="M364.38,15.45c0-1,0-1.67-.05-2.26h1.83l.07,1.26h.06A2,2,0,0,1,368.14,13a2.12,2.12,0,0,1,.45,0v2A3,3,0,0,0,368,15a1.36,1.36,0,0,0-1.45,1.08,2.36,2.36,0,0,0-.05.48V20h-2.13Z"/><path d="M376,16.54a3.44,3.44,0,0,1-3.62,3.66,3.36,3.36,0,0,1-3.54-3.53A3.42,3.42,0,0,1,372.51,13,3.33,3.33,0,0,1,376,16.54Zm-5,.07c0,1.18.49,2.06,1.4,2.06s1.36-.83,1.36-2.06c0-1-.39-2.06-1.36-2.06S371.05,15.6,371.05,16.61Z"/><path d="M381.65,10.6V16c0,1.62.61,2.45,1.71,2.45s1.73-.79,1.73-2.45V10.6h2.13v5.3c0,2.91-1.47,4.3-3.93,4.3s-3.79-1.32-3.79-4.33V10.6Z"/><path d="M388.79,17.84a5.32,5.32,0,0,0,2.36.59c1,0,1.5-.41,1.5-1s-.45-.93-1.58-1.33c-1.57-.55-2.59-1.42-2.59-2.79,0-1.61,1.34-2.84,3.57-2.84a5.85,5.85,0,0,1,2.41.47L394,12.65a4.37,4.37,0,0,0-2-.45c-.93,0-1.37.42-1.37.91s.53.87,1.75,1.33c1.66.61,2.45,1.48,2.45,2.81,0,1.59-1.22,2.93-3.81,2.93a6.26,6.26,0,0,1-2.68-.57Z"/><path d="M395.93,10.73a16,16,0,0,1,2.76-.2,5.24,5.24,0,0,1,2.78.53,2.06,2.06,0,0,1,1.14,1.85,2.13,2.13,0,0,1-1.56,2v0a2.35,2.35,0,0,1,1.88,2.32,2.52,2.52,0,0,1-1,2,6,6,0,0,1-3.71.85,16.44,16.44,0,0,1-2.31-.14ZM398,14.34h.7c1.12,0,1.72-.46,1.72-1.16s-.54-1.09-1.51-1.09a5.8,5.8,0,0,0-.91.05Zm0,4.19a6.3,6.3,0,0,0,.83,0c1,0,1.82-.37,1.82-1.36s-.86-1.33-1.92-1.33H398Z"/><rect class="ae" x="448.61" y="101.66" width="49.96" height="20.83" transform="translate(361.51 585.67) rotate(-90)"/><rect class="ae" x="474.68" y="102.29" width="50.36" height="19.18" transform="translate(387.98 611.74) rotate(-90)"/><rect class="v" x="532.69" y="81.19" width="60.93" height="55.84"/><polyline class="ab" points="471.93 137.06 471.93 170.75 471.93 137.06"/><line class="ad" x1="471.93" y1="137.06" x2="471.93" y2="143.06"/><line class="af" x1="471.93" y1="146.68" x2="471.93" y2="162.95"/><polyline class="ad" points="471.93 164.75 471.93 170.75 471.93 164.75"/><line class="af" x1="471.93" y1="161.14" x2="471.93" y2="144.87"/><line class="ad" x1="471.93" y1="143.06" x2="471.93" y2="137.06"/><line class="ab" x1="500.03" y1="137.06" x2="500.03" y2="170.75"/><line class="ad" x1="500.03" y1="137.06" x2="500.03" y2="143.06"/><line class="ag" x1="500.03" y1="146.68" x2="500.03" y2="162.95"/><line class="ad" x1="500.03" y1="164.75" x2="500.03" y2="170.75"/><line class="ab" x1="473.35" y1="76.22" x2="473.35" y2="86.15"/><line class="ah" x1="473.35" y1="76.22" x2="473.35" y2="86.15"/><rect class="ae" x="459.83" y="37.24" width="64.53" height="37.76"/><rect class="ae" x="532.9" y="43.35" width="61.75" height="21.83"/><path d="M546.71,101.08a22.4,22.4,0,0,1,3.55-.25,6.62,6.62,0,0,1,3.58.69,2.62,2.62,0,0,1,1.46,2.37,2.74,2.74,0,0,1-2,2.59v0a3,3,0,0,1,2.42,3,3.24,3.24,0,0,1-1.26,2.57c-.89.71-2.36,1.1-4.78,1.1a21.32,21.32,0,0,1-3-.18Zm2.72,4.65h.9c1.44,0,2.22-.6,2.22-1.5s-.71-1.4-1.95-1.4a8.57,8.57,0,0,0-1.17.07Zm0,5.38a7.83,7.83,0,0,0,1.06,0c1.25,0,2.35-.47,2.35-1.75s-1.1-1.71-2.47-1.71h-.94Z"/><path d="M567.4,108.41c-.06-1.46-.11-3.22-.11-5h0c-.38,1.55-.89,3.28-1.35,4.7l-1.48,4.74h-2.14l-1.3-4.7c-.4-1.42-.81-3.15-1.1-4.74h0c-.08,1.64-.13,3.51-.22,5l-.22,4.61h-2.53l.77-12.14h3.65l1.19,4c.38,1.41.76,2.92,1,4.34h0c.35-1.4.76-3,1.16-4.36l1.29-4h3.58l.67,12.14h-2.68Z"/><path d="M580.83,112.71a7.69,7.69,0,0,1-3.12.53c-4.19,0-6.35-2.61-6.35-6.07,0-4.14,2.95-6.45,6.62-6.45a7.22,7.22,0,0,1,3,.54l-.56,2.18a6,6,0,0,0-2.3-.45,4,4,0,0,0,0,8,6.75,6.75,0,0,0,2.28-.4Z"/><path d="M549,49.78h5.09v1H550.2v3.13h3.57v1H550.2v4.27H549Z"/><path d="M555.17,49.28h1.23v9.94h-1.23Z"/><path d="M561.88,59.22l-.1-.85h0a2.54,2.54,0,0,1-2.07,1,1.94,1.94,0,0,1-2.08-2c0-1.64,1.46-2.53,4.08-2.52v-.14a1.4,1.4,0,0,0-1.54-1.57,3.48,3.48,0,0,0-1.77.5l-.28-.81a4.27,4.27,0,0,1,2.23-.6c2.07,0,2.58,1.41,2.58,2.77V57.6a9.9,9.9,0,0,0,.11,1.62Zm-.18-3.46c-1.35,0-2.87.21-2.87,1.53A1.09,1.09,0,0,0,560,58.47a1.69,1.69,0,0,0,1.64-1.14,1.28,1.28,0,0,0,.07-.39Z"/><path d="M564.36,58a3.17,3.17,0,0,0,1.62.49c.9,0,1.32-.45,1.32-1S567,56.53,566,56.2c-1.22-.44-1.8-1.11-1.8-1.92a2.1,2.1,0,0,1,2.34-2,3.44,3.44,0,0,1,1.67.42l-.31.9a2.64,2.64,0,0,0-1.39-.4c-.72,0-1.13.42-1.13.93s.41.81,1.29,1.15c1.17.45,1.78,1,1.78,2,0,1.19-.93,2-2.54,2a3.84,3.84,0,0,1-1.9-.46Z"/><path d="M569.72,49.28H571v4.23h0a2.23,2.23,0,0,1,.88-.87,2.53,2.53,0,0,1,1.26-.35c.91,0,2.37.56,2.37,2.9v4h-1.23V55.33c0-1.09-.41-2-1.57-2A1.79,1.79,0,0,0,571,54.54a1.53,1.53,0,0,0-.08.59v4.09h-1.23Z"/><path d="M470.2,51.63v5.43c0,1.63.61,2.46,1.71,2.46s1.73-.79,1.73-2.46V51.63h2.13v5.29c0,2.92-1.47,4.3-3.93,4.3s-3.79-1.31-3.79-4.32V51.63Z"/><path d="M477,58.87a5.46,5.46,0,0,0,2.36.59c1,0,1.5-.41,1.5-1s-.45-.93-1.58-1.33c-1.57-.55-2.59-1.42-2.59-2.79,0-1.61,1.34-2.85,3.57-2.85a5.83,5.83,0,0,1,2.41.48l-.48,1.72a4.54,4.54,0,0,0-2-.44c-.93,0-1.37.42-1.37.91s.53.86,1.75,1.33c1.66.61,2.45,1.48,2.45,2.81,0,1.59-1.22,2.93-3.81,2.93a6.26,6.26,0,0,1-2.68-.57Z"/><path d="M483.78,51.75a17.33,17.33,0,0,1,2.76-.19,5.14,5.14,0,0,1,2.78.53,2.06,2.06,0,0,1,1.14,1.85,2.14,2.14,0,0,1-1.56,2v0a2.37,2.37,0,0,1,1.88,2.33,2.5,2.5,0,0,1-1,2,5.94,5.94,0,0,1-3.71.86,16.44,16.44,0,0,1-2.31-.14Zm2.11,3.62h.7c1.12,0,1.72-.46,1.72-1.16s-.54-1.1-1.51-1.1a5.44,5.44,0,0,0-.91.06Zm0,4.19a6.3,6.3,0,0,0,.83,0c1,0,1.82-.37,1.82-1.36s-.86-1.33-1.92-1.33h-.73Z"/><path d="M495.8,51.63v3.63h3.52V51.63h2.13v9.44h-2.13v-4H495.8v4h-2.14V51.63Z"/><path d="M509,58.87c0,.9,0,1.63.06,2.2H507.2l-.1-1h0a2.45,2.45,0,0,1-2.14,1.12c-1.39,0-2.41-.86-2.41-3v-4h2.14V57.9c0,1,.32,1.6,1.07,1.6a1.16,1.16,0,0,0,1.06-.74,1.14,1.14,0,0,0,.07-.46V54.22H509Z"/><path d="M509.94,61.07c0-.45.06-1.28.06-2v-7.9h2.13V55h0a2.43,2.43,0,0,1,2.08-1c1.64,0,2.84,1.35,2.83,3.46,0,2.46-1.57,3.69-3.14,3.69a2.27,2.27,0,0,1-2.06-1.1h0l-.08,1Zm2.19-2.91a1.4,1.4,0,0,0,0,.37,1.28,1.28,0,0,0,1.25,1c.91,0,1.47-.7,1.47-1.93,0-1.06-.48-1.9-1.47-1.9a1.31,1.31,0,0,0-1.25,1,1.61,1.61,0,0,0,0,.39Z"/><path d="M469.37,127.63a15.93,15.93,0,0,1-.16-2.22,4.6,4.6,0,0,1,1-3.27,3.74,3.74,0,0,1,2.91-1.14,4.24,4.24,0,0,1,3.14,1.16,5,5,0,0,1,1.16,3.57,17,17,0,0,1-.09,1.9Zm7.15-1a6.25,6.25,0,0,0,.06-1,3.1,3.1,0,0,0-3.43-3.44c-1.9,0-3.12,1.06-3.12,3.27a5.82,5.82,0,0,0,.11,1.22Z"/><path d="M474.64,119.34a1.86,1.86,0,0,0,2-2,3.76,3.76,0,0,0-.3-1.61l.76-.18a4.67,4.67,0,0,1,.36,1.93,2.69,2.69,0,0,1-2.93,2.85c-1.75,0-3.13-1-3.13-2.72a2.47,2.47,0,0,1,2.74-2.4,4.35,4.35,0,0,1,.49,0Zm-.76-3.1a1.5,1.5,0,0,0-1.71,1.47,1.74,1.74,0,0,0,1.71,1.61Z"/><path d="M477.35,114.26c-.4,0-1-.05-1.5-.05h-7v-1h3.64v0a2.18,2.18,0,0,1-1.07-2c0-1.44,1.2-2.46,3-2.45,2.07,0,3.1,1.31,3.1,2.6a2.06,2.06,0,0,1-1.09,1.94v0l1,0ZM475,113.17a1.6,1.6,0,0,0,.39,0,1.62,1.62,0,0,0,1.23-1.58c0-1.11-.9-1.77-2.23-1.77-1.16,0-2.16.6-2.16,1.73a1.69,1.69,0,0,0,1.3,1.61,2.34,2.34,0,0,0,.43.06Z"/><path d="M475.77,102.83c.6,0,1.12,0,1.58,0v.93l-1,.06v0a2.18,2.18,0,0,1,1.08,1.92c0,.91-.5,2-2.54,2h-3.39v-1h3.21c1.1,0,1.85-.34,1.85-1.3a1.53,1.53,0,0,0-1-1.39,1.57,1.57,0,0,0-.54-.1h-3.56v-1Z"/><path d="M471.55,96.37c.42,0,.88,0,1.59,0h3.37a3.31,3.31,0,0,1,2.65.83,3.06,3.06,0,0,1,.7,2.11,3.78,3.78,0,0,1-.48,1.93l-.81-.27a3.25,3.25,0,0,0,.46-1.7c0-1.08-.56-1.87-2-1.87h-.65v0a2.09,2.09,0,0,1,1,1.85,2.6,2.6,0,0,1-2.83,2.47,2.79,2.79,0,0,1-3.09-2.61,1.92,1.92,0,0,1,1-1.81v0l-.87,0Zm2.29,1.09a1.44,1.44,0,0,0-.48.06A1.52,1.52,0,0,0,472.24,99c0,1,.85,1.73,2.2,1.73,1.14,0,2.08-.58,2.08-1.72a1.53,1.53,0,0,0-1.08-1.46,1.82,1.82,0,0,0-.56-.09Z"/><path d="M461.9,166.68v-.87h4.51c1.79,0,2.34.88,2.34,2a2.82,2.82,0,0,1-.16.93l-.71-.13a2.08,2.08,0,0,0,.13-.73c0-.78-.35-1.24-1.67-1.24Z"/><path d="M462.64,163.33v2h-.74v-5h.74v2.06h6v.88Z"/><path d="M466.52,159.55l2.12.7v.9l-6.74-2.29v-1.05l6.74-2.3v.93l-2.12.72Zm-.68-2.21-1.94.66c-.44.15-.84.25-1.23.35v0c.4.1.81.21,1.22.34l1.95.66Z"/><path d="M468.34,149.79a6.28,6.28,0,0,1,.37,2.07,3.17,3.17,0,0,1-3.4,3.46,3.38,3.38,0,0,1-3.48-3.65,4.17,4.17,0,0,1,.31-1.68l.71.21a3.49,3.49,0,0,0-.29,1.49,2.52,2.52,0,0,0,2.71,2.71,2.47,2.47,0,0,0,2.72-2.6,2.84,2.84,0,0,0-.18-1.16h-2V152h-.7v-2.22Z"/><path d="M496.57,123.17h4.79c1.81,0,2.57-.81,2.57-1.89s-.79-2-2.57-2h-4.79v-1.06h4.71c2.49,0,3.51,1.31,3.51,3.06s-1,2.9-3.46,2.9h-4.76Z"/><path d="M502.11,115.85l2.54.84v1.08L496.57,115v-1.26l8.08-2.76v1.12l-2.54.86Zm-.81-2.65L499,114c-.53.18-1,.3-1.48.42v0c.48.12,1,.25,1.47.41l2.34.79Z"/><path d="M496.68,110.11a10.66,10.66,0,0,1-.17-2,3.28,3.28,0,0,1,.66-2.34,2,2,0,0,1,1.53-.64,2.13,2.13,0,0,1,2.07,1.53h0a2,2,0,0,1,1.63-1.19,13,13,0,0,0,2.22-.63v1.08a9,9,0,0,1-1.93.54c-1.11.24-1.53.68-1.57,1.62v1h3.5v1Zm3.68-1V108c0-1.12-.61-1.82-1.54-1.82s-1.49.75-1.51,1.86a4.15,4.15,0,0,0,.1,1Z"/><path d="M497.46,102.31v2.46h-.89v-6h.89v2.47h7.19v1Z"/><polyline class="ai" points="517.99 76.22 517.99 109.11 531.94 109.11"/><polyline class="ai" points="372.98 28.81 372.98 58.58 448.77 58.58"/><polyline class="aj" points="149 127.43 359.2 127.43 415.76 127.43 415.76 170.72"/><polyline class="aj" points="149 90.72 417.51 90.72 431.15 90.72 431.15 167.77 431.15 170.11"/><line class="ak" x1="402.67" y1="176.55" x2="371.15" y2="176.55"/><polygon class="t" points="364.09 176.55 374.04 172.49 371.68 176.55 374.04 180.62 364.09 176.55"/><line class="ak" x1="397.11" y1="189.26" x2="364.09" y2="189.26"/><polygon class="t" points="404.17 189.26 394.22 185.2 396.58 189.26 394.22 193.33 404.17 189.26"/><rect class="h" x="293.58" y="143.89" width="68.51" height="52.44"/><path class="al" d="M360.09,145.89v48.44H295.58V145.89h64.51m4-4H291.58v56.44h72.51V141.89Z"/><path d="M312.42,152.76H314v8.12c0,3.22-1.58,4.21-3.67,4.21a4.8,4.8,0,0,1-1.67-.29l.23-1.27a3.85,3.85,0,0,0,1.31.23c1.41,0,2.24-.63,2.24-3Z"/><path d="M317.85,153.73a1,1,0,0,1-2,0,1,1,0,0,1,1-1A.94.94,0,0,1,317.85,153.73Zm-1.76,11.16v-8.71h1.58v8.71Z"/><path d="M321.76,153.68v2.5H324v1.21h-2.27v4.7c0,1.08.3,1.69,1.19,1.69a3.59,3.59,0,0,0,.91-.11l.08,1.19a4.1,4.1,0,0,1-1.41.21,2.2,2.2,0,0,1-1.71-.66,3.23,3.23,0,0,1-.61-2.27v-4.75h-1.35v-1.21h1.35v-2.09Z"/><path d="M327.27,153.68v2.5h2.26v1.21h-2.26v4.7c0,1.08.3,1.69,1.18,1.69a3.68,3.68,0,0,0,.92-.11l.07,1.19a4,4,0,0,1-1.4.21,2.2,2.2,0,0,1-1.71-.66,3.23,3.23,0,0,1-.61-2.27v-4.75h-1.35v-1.21h1.35v-2.09Z"/><path d="M331.64,160.83a2.79,2.79,0,0,0,3,3,5.75,5.75,0,0,0,2.41-.45l.27,1.13a6.93,6.93,0,0,1-2.9.54,4,4,0,0,1-4.28-4.39c0-2.63,1.55-4.7,4.08-4.7,2.85,0,3.61,2.5,3.61,4.11a5.61,5.61,0,0,1-.06.74Zm4.65-1.14a2.26,2.26,0,0,0-2.2-2.57,2.62,2.62,0,0,0-2.43,2.57Z"/><path d="M339.33,158.9c0-1,0-1.91-.08-2.72h1.39l.05,1.71h.08a2.61,2.61,0,0,1,2.41-1.91,1.58,1.58,0,0,1,.45.06v1.49a2.21,2.21,0,0,0-2.67,2,5.32,5.32,0,0,0-.07.74v4.64h-1.56Z"/><path d="M310.47,186.1a7.7,7.7,0,0,1-3.2.57c-3.42,0-6-2.16-6-6.14a6,6,0,0,1,6.34-6.37,6.44,6.44,0,0,1,2.88.54l-.38,1.28a5.65,5.65,0,0,0-2.44-.5c-2.85,0-4.74,1.81-4.74,5,0,3,1.71,4.88,4.66,4.88a6.37,6.37,0,0,0,2.56-.5Z"/><path d="M311.93,173.71h1.58v12.78h-1.58Z"/><path d="M316.61,182.43a2.79,2.79,0,0,0,3,3A5.75,5.75,0,0,0,322,185l.27,1.13a6.93,6.93,0,0,1-2.9.54,4,4,0,0,1-4.28-4.39c0-2.63,1.55-4.7,4.08-4.7,2.85,0,3.61,2.51,3.61,4.11a5.61,5.61,0,0,1-.06.74Zm4.65-1.14a2.26,2.26,0,0,0-2.2-2.57,2.62,2.62,0,0,0-2.43,2.57Z"/><path d="M329.12,186.49,329,185.4h-.05a3.25,3.25,0,0,1-2.66,1.29,2.48,2.48,0,0,1-2.67-2.5c0-2.11,1.87-3.26,5.24-3.24v-.18a1.8,1.8,0,0,0-2-2,4.31,4.31,0,0,0-2.27.65l-.36-1a5.4,5.4,0,0,1,2.86-.78c2.67,0,3.32,1.82,3.32,3.57v3.26a12,12,0,0,0,.14,2.08Zm-.23-4.44c-1.73,0-3.69.27-3.69,2a1.4,1.4,0,0,0,1.49,1.51,2.18,2.18,0,0,0,2.11-1.46,1.76,1.76,0,0,0,.09-.5Z"/><path d="M332.52,180.14c0-.9,0-1.64-.07-2.36h1.4l.09,1.44h0a3.2,3.2,0,0,1,2.88-1.64c1.21,0,3.08.72,3.08,3.71v5.2h-1.58v-5c0-1.4-.53-2.57-2-2.57a2.29,2.29,0,0,0-2.23,2.35v5.24h-1.59Z"/><path d="M342.94,182.43a2.79,2.79,0,0,0,3,3,5.71,5.71,0,0,0,2.41-.45l.27,1.13a6.87,6.87,0,0,1-2.89.54,4,4,0,0,1-4.29-4.39c0-2.63,1.55-4.7,4.09-4.7,2.84,0,3.6,2.51,3.6,4.11,0,.32,0,.57-.05.74Zm4.65-1.14a2.25,2.25,0,0,0-2.2-2.57,2.62,2.62,0,0,0-2.43,2.57Z"/><path d="M350.63,180.5c0-1,0-1.91-.07-2.72h1.38l.06,1.71h.07a2.62,2.62,0,0,1,2.41-1.91,1.53,1.53,0,0,1,.45.06v1.49a2.16,2.16,0,0,0-.54,0,2.21,2.21,0,0,0-2.12,2,4.14,4.14,0,0,0-.07.74v4.64h-1.57Z"/><path d="M159.15,133.26a7.83,7.83,0,0,0-2.22,5.35,6.42,6.42,0,0,0,.64,2.77h-.39a5.73,5.73,0,0,1-.69-2.83,8,8,0,0,1,2.18-5.29Z"/><path d="M162.72,137.28c0,1.31-1,3-2.54,3a1.8,1.8,0,0,1-1.78-2c0-1.54,1.07-3.06,2.54-3.06A1.79,1.79,0,0,1,162.72,137.28Zm-3.85,1a1.43,1.43,0,0,0,1.37,1.61c1.09,0,2-1.33,2-2.63a1.44,1.44,0,0,0-1.34-1.62C159.73,135.65,158.87,137,158.87,138.29Z"/><path d="M162.69,142.16l1-5.18c.11-.58.2-1.12.26-1.6h.43l-.16,1h0a2.29,2.29,0,0,1,1.84-1.14c1.05,0,1.44.86,1.44,1.68,0,1.7-1.28,3.34-2.83,3.34a2.3,2.3,0,0,1-1.13-.23h0l-.38,2.1Zm.93-2.54a1.86,1.86,0,0,0,1.09.28c1.25,0,2.32-1.47,2.32-2.92,0-.58-.25-1.32-1.1-1.32s-1.73.83-2,2.43Z"/><path d="M169.72,134.12l-.24,1.26h1.22l-.07.37H169.4l-.52,2.78a4.37,4.37,0,0,0-.1.86.45.45,0,0,0,.48.51,1.37,1.37,0,0,0,.39-.05l0,.36a1.56,1.56,0,0,1-.52.07.79.79,0,0,1-.86-.86,4.33,4.33,0,0,1,.11-.91l.53-2.76h-.73l.07-.37H169l.21-1.13Z"/><path d="M170.6,140.18l.92-4.8H172l-.92,4.8Zm1-6.18a.39.39,0,0,1,.37-.4.36.36,0,0,1,.36.4.4.4,0,0,1-.39.4A.35.35,0,0,1,171.64,134Z"/><path d="M176.72,137.28c0,1.31-.95,3-2.53,3a1.8,1.8,0,0,1-1.78-2c0-1.54,1.07-3.06,2.54-3.06A1.78,1.78,0,0,1,176.72,137.28Zm-3.84,1a1.43,1.43,0,0,0,1.37,1.61c1.09,0,2-1.33,2-2.63a1.44,1.44,0,0,0-1.34-1.62C173.74,135.65,172.88,137,172.88,138.29Z"/><path d="M177.16,140.18l.66-3.51c.1-.49.16-.91.21-1.29h.42l-.15,1h0a2.19,2.19,0,0,1,1.85-1.14,1.18,1.18,0,0,1,1.19,1.34,5.63,5.63,0,0,1-.08.76l-.53,2.81h-.45l.54-2.85a4.6,4.6,0,0,0,.07-.66c0-.57-.23-1-.92-1a2.38,2.38,0,0,0-1.93,2.05l-.45,2.46Z"/><path d="M185.28,140.18a12,12,0,0,1,.12-1.42h0a2.24,2.24,0,0,1-2,1.53,1.37,1.37,0,0,1-1.33-1.53,3.42,3.42,0,0,1,3.24-3.49,4.52,4.52,0,0,1,1.1.14l-.48,2.5a11.66,11.66,0,0,0-.21,2.27Zm.6-4.43a1.79,1.79,0,0,0-.68-.09,2.93,2.93,0,0,0-2.69,3c0,.58.18,1.22,1,1.22s1.84-1.15,2.09-2.49Z"/><path d="M186.85,140.18l1.35-7.1h.46l-1.36,7.1Z"/><path d="M187.77,141.38A7.91,7.91,0,0,0,190,136a6.28,6.28,0,0,0-.64-2.75h.39a5.61,5.61,0,0,1,.69,2.82,8.09,8.09,0,0,1-2.18,5.3Z"/><path d="M157.78,116.21h0l-1.59.86-.23-.94,2-1.07H159v9.11h-1.2Z"/><path d="M168,119.52c0,3.09-1.15,4.8-3.16,4.8-1.78,0-3-1.66-3-4.67s1.31-4.74,3.16-4.74S168,116.62,168,119.52Zm-4.94.14c0,2.37.73,3.71,1.85,3.71s1.86-1.47,1.86-3.8-.57-3.71-1.85-3.71C163.83,115.86,163.05,117.18,163.05,119.66Z"/><path d="M177.16,120c-.07-1.31-.15-2.9-.14-4.07h0c-.32,1.1-.71,2.28-1.19,3.58l-1.67,4.58h-.92l-1.53-4.49c-.45-1.33-.82-2.55-1.09-3.67h0c0,1.17-.1,2.76-.18,4.17l-.25,4H169l.65-9.44h1.56l1.61,4.56c.39,1.17.71,2.2.95,3.18h0c.24-1,.58-2,1-3.18l1.68-4.56H178l.59,9.44H177.4Z"/><path d="M181.33,114.73v4h4.57v-4h1.23v9.44H185.9v-4.43h-4.57v4.43h-1.22v-9.44Z"/><path d="M188.23,123.46l3.07-4c.29-.36.57-.68.88-1v0h-3.67v-1h5.17v.77l-3,3.94c-.28.37-.56.71-.87,1.06v0h4v1h-5.51Z"/><path d="M203.9,123.86a5.93,5.93,0,0,1-2.49.45,4.42,4.42,0,0,1-4.67-4.78,4.71,4.71,0,0,1,4.93-5,5.25,5.25,0,0,1,2.25.42l-.3,1a4.49,4.49,0,0,0-1.9-.39c-2.22,0-3.69,1.41-3.69,3.89,0,2.31,1.33,3.8,3.63,3.8a4.85,4.85,0,0,0,2-.4Z"/><path d="M205,114.22h1.24v10H205Z"/><path d="M209.2,120.5h0c.17-.24.41-.53.61-.77l2-2.34h1.49l-2.62,2.79,3,4h-1.5l-2.33-3.25-.64.7v2.55H208v-10h1.21Z"/><path d="M160.73,80.08h0l-1.59.85-.24-.93,2-1.07h1V88h-1.19Z"/><path d="M167.94,78.71a13.82,13.82,0,0,1,2.34-.19,3.9,3.9,0,0,1,2.65.79,2.53,2.53,0,0,1,.83,2,2.8,2.8,0,0,1-.73,2,3.92,3.92,0,0,1-2.89,1,4.19,4.19,0,0,1-1-.09V88h-1.22Zm1.22,4.55a4.09,4.09,0,0,0,1,.1c1.47,0,2.37-.72,2.37-2s-.89-1.85-2.23-1.85a4.88,4.88,0,0,0-1.15.1Z"/><path d="M175,78.71a13.82,13.82,0,0,1,2.34-.19,3.92,3.92,0,0,1,2.65.79,2.52,2.52,0,0,1,.82,2,2.8,2.8,0,0,1-.72,2,3.92,3.92,0,0,1-2.89,1,4.19,4.19,0,0,1-1-.09V88H175Zm1.22,4.55a4.09,4.09,0,0,0,1,.1c1.47,0,2.37-.72,2.37-2s-.89-1.85-2.23-1.85a4.88,4.88,0,0,0-1.15.1Z"/><path d="M182,86.55a4.31,4.31,0,0,0,2.19.62c1.24,0,2-.66,2-1.61s-.5-1.39-1.78-1.88c-1.54-.55-2.49-1.34-2.49-2.68s1.22-2.56,3-2.56a4.39,4.39,0,0,1,2.09.46l-.34,1a3.74,3.74,0,0,0-1.79-.45c-1.29,0-1.78.77-1.78,1.41,0,.89.58,1.32,1.88,1.83,1.59.61,2.41,1.38,2.41,2.77s-1.08,2.72-3.31,2.72a4.86,4.86,0,0,1-2.41-.61Z"/><path d="M161.68,94.7a7.79,7.79,0,0,0-2.22,5.34,6.42,6.42,0,0,0,.64,2.77h-.39A5.73,5.73,0,0,1,159,100a7.94,7.94,0,0,1,2.18-5.28Z"/><path d="M165.25,98.71c0,1.31-1,3-2.54,3a1.8,1.8,0,0,1-1.78-2c0-1.54,1.07-3.06,2.54-3.06A1.79,1.79,0,0,1,165.25,98.71Zm-3.85,1a1.43,1.43,0,0,0,1.37,1.61c1.09,0,2-1.33,2-2.63a1.44,1.44,0,0,0-1.34-1.62C162.26,97.08,161.4,98.4,161.4,99.72Z"/><path d="M165.22,103.59l1-5.18c.11-.58.2-1.12.26-1.6h.43l-.16,1h0a2.29,2.29,0,0,1,1.84-1.14c1,0,1.44.86,1.44,1.68,0,1.7-1.28,3.34-2.83,3.34a2.3,2.3,0,0,1-1.13-.23h0l-.38,2.1Zm.93-2.54a1.86,1.86,0,0,0,1.09.28c1.25,0,2.32-1.47,2.32-2.92,0-.58-.25-1.32-1.1-1.32s-1.73.83-2,2.43Z"/><path d="M172.25,95.55,172,96.81h1.22l-.07.37h-1.23l-.52,2.78a4.37,4.37,0,0,0-.1.86.45.45,0,0,0,.48.51,1.37,1.37,0,0,0,.39,0l0,.36a1.56,1.56,0,0,1-.52.07.79.79,0,0,1-.86-.86,4.33,4.33,0,0,1,.11-.91l.53-2.76h-.73l.07-.37h.74l.21-1.13Z"/><path d="M173.13,101.61l.92-4.8h.45l-.92,4.8Zm1-6.18a.38.38,0,0,1,.37-.39.35.35,0,0,1,.36.39.4.4,0,0,1-.39.4A.35.35,0,0,1,174.17,95.43Z"/><path d="M179.26,98.71c0,1.31-1,3-2.54,3a1.8,1.8,0,0,1-1.78-2c0-1.54,1.07-3.06,2.54-3.06A1.79,1.79,0,0,1,179.26,98.71Zm-3.85,1a1.43,1.43,0,0,0,1.37,1.61c1.09,0,2-1.33,2-2.63a1.44,1.44,0,0,0-1.34-1.62C176.27,97.08,175.41,98.4,175.41,99.72Z"/><path d="M179.69,101.61l.66-3.51c.1-.49.16-.91.21-1.29H181l-.15,1h0a2.19,2.19,0,0,1,1.85-1.14A1.18,1.18,0,0,1,183.9,98a4.46,4.46,0,0,1-.09.76l-.53,2.81h-.45l.54-2.85a4.6,4.6,0,0,0,.07-.66c0-.57-.23-1-.92-1a2.38,2.38,0,0,0-1.93,2.05l-.45,2.46Z"/><path d="M187.81,101.61a10.48,10.48,0,0,1,.13-1.42h0c-.56,1.12-1.26,1.53-2,1.53a1.37,1.37,0,0,1-1.33-1.53,3.42,3.42,0,0,1,3.24-3.49,4.54,4.54,0,0,1,1.11.14l-.48,2.5a10.91,10.91,0,0,0-.21,2.27Zm.61-4.43a1.85,1.85,0,0,0-.69-.09,2.93,2.93,0,0,0-2.69,3c0,.58.18,1.22,1,1.22s1.84-1.15,2.1-2.49Z"/><path d="M189.38,101.61l1.35-7.09h.46l-1.36,7.09Z"/><path d="M190.3,102.81a7.91,7.91,0,0,0,2.22-5.37,6.21,6.21,0,0,0-.64-2.74h.39a5.54,5.54,0,0,1,.69,2.81,8.09,8.09,0,0,1-2.18,5.3Z"/><line class="aj" x1="327.93" y1="143.73" x2="327.93" y2="129.23"/><rect class="am" x="128.18" y="77.61" width="19.18" height="24.32"/><rect class="am" x="112.29" y="79.75" width="15.9" height="19.28"/><rect class="am" x="129.82" y="116.29" width="19.18" height="24.32"/><rect class="am" x="113.93" y="118.44" width="15.9" height="19.28"/><rect class="an" x="490.38" y="293.19" width="72.98" height="64.56"/><path class="b" d="M561.36,295.19v60.57h-69V295.19h69m4-4h-77v68.57h77V291.19Z"/><path d="M513,312.13v3.63h3.52v-3.63h2.12v9.44h-2.12v-3.95H513v3.95h-2.14v-9.44Z"/><path d="M520.1,312.26a17.22,17.22,0,0,1,2.76-.2,5.3,5.3,0,0,1,2.79.53,2.05,2.05,0,0,1,1.13,1.85,2.14,2.14,0,0,1-1.55,2v0a2.35,2.35,0,0,1,1.88,2.32,2.55,2.55,0,0,1-1,2,6,6,0,0,1-3.72.85,16.56,16.56,0,0,1-2.31-.14Zm2.12,3.61h.7c1.12,0,1.72-.46,1.72-1.16s-.55-1.09-1.51-1.09a5.8,5.8,0,0,0-.91.05Zm0,4.19a6.22,6.22,0,0,0,.82,0c1,0,1.82-.37,1.82-1.36S524,317.4,523,317.4h-.73Z"/><path d="M536.19,318c0-1.14-.08-2.51-.08-3.88h0c-.3,1.2-.69,2.55-1.05,3.65l-1.15,3.69H532.2l-1-3.66c-.31-1.1-.63-2.45-.85-3.68h0c-.06,1.27-.1,2.73-.17,3.91l-.17,3.58h-2l.6-9.44h2.84l.93,3.15c.29,1.1.59,2.27.8,3.38h0c.26-1.09.59-2.34.9-3.39l1-3.14h2.79l.52,9.44h-2.09Z"/><path d="M539.37,321.57v-1.29l1.17-1.06c2-1.78,3-2.8,3-3.87,0-.74-.45-1.33-1.5-1.33a3.33,3.33,0,0,0-1.95.76l-.6-1.53a5,5,0,0,1,3-.94c2.06,0,3.19,1.21,3.19,2.86s-1.1,2.75-2.42,3.92l-.84.7v0h3.43v1.75Z"/><path d="M505.37,331.62h0l-1.58.85-.24-.94,2-1.06h1.05v9.1h-1.19Z"/><path d="M514.72,331.34a4.37,4.37,0,0,0-.92.05,3.7,3.7,0,0,0-3.17,3.24h0a2.78,2.78,0,0,1,4.95,1.89,3,3,0,0,1-3,3.21c-1.94,0-3.22-1.52-3.22-3.88a5.76,5.76,0,0,1,1.54-4.11,5,5,0,0,1,2.92-1.34,5.37,5.37,0,0,1,.89-.07Zm-.35,5.25a1.85,1.85,0,0,0-1.87-2.09,2,2,0,0,0-1.77,1.12,1.09,1.09,0,0,0-.14.55c0,1.5.71,2.6,2,2.6C513.66,338.77,514.37,337.89,514.37,336.59Z"/><path d="M524,339.15a8.73,8.73,0,0,1-2.9.52,4.44,4.44,0,0,1-4.85-4.76,4.74,4.74,0,0,1,5.11-4.88,5.77,5.77,0,0,1,2.36.44l-.3,1a4.93,4.93,0,0,0-2.08-.4,3.53,3.53,0,0,0-3.8,3.79,3.46,3.46,0,0,0,3.64,3.81,4,4,0,0,0,1.63-.25v-2.82h-1.92v-1H524Z"/><path d="M525.49,330.26a11.87,11.87,0,0,1,2.22-.2,3.86,3.86,0,0,1,2.59.69,2,2,0,0,1,.79,1.67,2.24,2.24,0,0,1-1.6,2.07v0a2.42,2.42,0,0,1,2,2.36,2.51,2.51,0,0,1-.8,1.89,4.69,4.69,0,0,1-3.26.89,13.24,13.24,0,0,1-1.89-.12Zm1.21,3.86h1.11c1.29,0,2.05-.67,2.05-1.58,0-1.11-.84-1.54-2.08-1.54a5.54,5.54,0,0,0-1.08.08Zm0,4.53a7,7,0,0,0,1,.05c1.26,0,2.42-.46,2.42-1.83s-1.11-1.82-2.44-1.82h-1Z"/><path d="M533.19,332.79l1.48,4c.15.45.32,1,.43,1.39h0c.13-.41.27-.93.44-1.42l1.34-4h1.3l-1.85,4.84c-.88,2.32-1.48,3.51-2.32,4.24a3.39,3.39,0,0,1-1.51.8l-.31-1a3.3,3.3,0,0,0,1.08-.6,3.82,3.82,0,0,0,1-1.37.86.86,0,0,0,.1-.3,1.2,1.2,0,0,0-.08-.32l-2.51-6.25Z"/><path d="M540.47,330.85v1.94h1.76v.94h-1.76v3.66c0,.84.23,1.31.92,1.31a3,3,0,0,0,.72-.08l0,.92a3,3,0,0,1-1.09.17,1.68,1.68,0,0,1-1.33-.52,2.49,2.49,0,0,1-.48-1.76v-3.7h-1v-.94h1v-1.62Z"/><path d="M543.87,336.41a2.17,2.17,0,0,0,2.32,2.35,4.41,4.41,0,0,0,1.88-.35l.21.88a5.43,5.43,0,0,1-2.26.42,3.15,3.15,0,0,1-3.33-3.42c0-2,1.21-3.65,3.18-3.65,2.21,0,2.8,1.95,2.8,3.19a5.79,5.79,0,0,1,0,.58Zm3.61-.89a1.75,1.75,0,0,0-1.71-2,2,2,0,0,0-1.89,2Z"/><path d="M549.68,338.31a3.2,3.2,0,0,0,1.62.49c.9,0,1.32-.45,1.32-1s-.35-.91-1.26-1.24c-1.22-.44-1.8-1.11-1.8-1.92a2.1,2.1,0,0,1,2.34-2,3.44,3.44,0,0,1,1.67.42l-.31.9a2.57,2.57,0,0,0-1.38-.4c-.73,0-1.14.42-1.14.93s.41.81,1.29,1.15c1.18.45,1.78,1,1.78,2,0,1.19-.93,2-2.54,2a3.84,3.84,0,0,1-1.9-.46Z"/></svg>