<?xml version="1.0" encoding="UTF-8" standalone="no"?>
<svg
   xmlns:dc="http://purl.org/dc/elements/1.1/"
   xmlns:cc="http://creativecommons.org/ns#"
   xmlns:rdf="http://www.w3.org/1999/02/22-rdf-syntax-ns#"
   xmlns:svg="http://www.w3.org/2000/svg"
   xmlns="http://www.w3.org/2000/svg"
   xmlns:sodipodi="http://sodipodi.sourceforge.net/DTD/sodipodi-0.dtd"
   xmlns:inkscape="http://www.inkscape.org/namespaces/inkscape"
   width="213.284mm"
   height="91.8232mm"
   viewBox="0 0 806 347"
   version="1.1"
   id="svg3"
   sodipodi:docname="LuxProvide_logo_white.svg"
   inkscape:version="1.0.1 (3bc2e813f5, 2020-09-07)">
  <metadata
     id="metadata9">
    <rdf:RDF>
      <cc:Work
         rdf:about="">
        <dc:format>image/svg+xml</dc:format>
        <dc:type
           rdf:resource="http://purl.org/dc/dcmitype/StillImage" />
        <dc:title />
      </cc:Work>
    </rdf:RDF>
  </metadata>
  <defs
     id="defs7" />
  <sodipodi:namedview
     pagecolor="#ffffff"
     bordercolor="#666666"
     borderopacity="1"
     objecttolerance="10"
     gridtolerance="10"
     guidetolerance="10"
     inkscape:pageopacity="0"
     inkscape:pageshadow="2"
     inkscape:window-width="2560"
     inkscape:window-height="1375"
     id="namedview5"
     showgrid="false"
     inkscape:zoom="1.4352831"
     inkscape:cx="403.05637"
     inkscape:cy="172.13069"
     inkscape:window-x="0"
     inkscape:window-y="0"
     inkscape:window-maximized="1"
     inkscape:current-layer="svg3"
     inkscape:document-rotation="0" />
  <path
     id="Selection #1"
     fill="none"
     stroke="black"
     stroke-width="1"
     d="M 114.00,112.00            C 114.00,112.00 153.00,112.00 153.00,112.00              163.13,111.98 160.12,111.65 169.72,98.00              174.18,91.66 182.22,82.36 188.00,77.29              210.35,57.68 240.79,43.14 271.00,43.00              293.84,42.89 316.91,46.94 337.00,58.43              344.77,62.87 349.99,66.14 357.00,71.80              359.08,73.49 365.15,79.20 367.00,79.83              370.59,81.07 373.72,77.23 376.00,75.00              376.00,75.00 390.00,61.00 390.00,61.00              391.78,59.21 396.05,55.24 396.83,53.00              397.98,49.69 395.16,47.53 392.98,45.58              387.29,40.48 381.31,35.64 375.00,31.34              350.20,14.46 316.38,1.05 286.00,1.00              267.43,0.97 256.63,0.32 238.00,4.42              196.51,13.57 160.11,37.64 135.15,72.00              127.90,81.98 117.33,100.24 114.00,112.00 Z            M 75.00,41.00            C 75.00,41.00 48.00,58.67 48.00,58.67              45.18,60.54 39.38,65.02 36.00,64.66              33.41,64.39 27.41,59.94 25.00,58.33              19.36,54.57 5.56,45.13 0.00,43.00              0.00,43.00 1.02,64.79 1.02,64.79              1.02,64.79 21.00,79.00 21.00,79.00              21.00,79.00 7.00,87.00 7.00,87.00              7.00,87.00 0.57,92.33 0.57,92.33              0.57,92.33 0.00,114.00 0.00,114.00              7.00,110.59 17.27,103.49 24.00,99.00              26.60,97.27 33.17,92.54 36.00,92.23              39.22,91.88 45.18,96.26 48.00,98.05              48.00,98.05 76.00,116.00 76.00,116.00              76.00,116.00 75.40,94.21 75.40,94.21              75.40,94.21 69.00,88.68 69.00,88.68              69.00,88.68 52.00,79.00 52.00,79.00              52.00,79.00 74.40,64.39 74.40,64.39              76.95,61.38 76.49,44.77 75.00,41.00 Z            M 366.00,126.42            C 351.20,128.57 340.46,131.74 330.47,144.00              315.69,162.13 316.38,190.21 333.09,206.91              342.08,215.90 355.40,220.70 368.00,220.99              376.01,221.17 386.83,219.21 394.00,215.63              399.50,212.87 404.76,208.60 408.82,204.00              424.39,186.37 423.86,158.19 407.83,141.04              397.84,130.36 380.42,124.68 366.00,126.42 Z            M 113.00,128.00            C 113.00,128.00 113.00,219.00 113.00,219.00              113.00,219.00 139.00,219.00 139.00,219.00              139.00,219.00 139.00,193.00 139.00,193.00              152.59,193.00 166.01,194.41 178.00,186.61              195.58,175.18 197.02,147.12 180.00,134.79              169.28,127.02 160.32,128.00 148.00,128.00              148.00,128.00 113.00,128.00 113.00,128.00 Z            M 216.00,128.00            C 216.00,128.00 216.00,219.00 216.00,219.00              216.00,219.00 242.00,219.00 242.00,219.00              242.00,219.00 242.00,190.00 242.00,190.00              242.00,190.00 248.82,191.02 248.82,191.02              248.82,191.02 267.52,217.40 267.52,217.40              267.52,217.40 275.00,219.00 275.00,219.00              275.00,219.00 299.00,219.00 299.00,219.00              299.00,219.00 277.00,186.00 277.00,186.00              297.79,179.87 301.88,146.42 282.00,133.55              272.07,127.12 264.11,128.00 253.00,128.00              253.00,128.00 216.00,128.00 216.00,128.00 Z            M 435.00,128.00            C 435.00,128.00 446.80,158.00 446.80,158.00              446.80,158.00 462.60,198.00 462.60,198.00              462.60,198.00 471.65,218.01 471.65,218.01              471.65,218.01 479.00,219.00 479.00,219.00              479.00,219.00 492.00,219.00 492.00,219.00              492.00,219.00 497.50,217.98 497.50,217.98              497.50,217.98 506.60,198.00 506.60,198.00              506.60,198.00 524.00,154.00 524.00,154.00              524.00,154.00 534.00,128.00 534.00,128.00              534.00,128.00 512.00,128.00 512.00,128.00              503.43,128.05 505.06,128.65 500.31,142.00              500.31,142.00 485.00,184.00 485.00,184.00              485.00,184.00 471.00,144.00 471.00,144.00              471.00,144.00 464.49,129.02 464.49,129.02              464.49,129.02 457.00,128.00 457.00,128.00              457.00,128.00 435.00,128.00 435.00,128.00 Z            M 558.00,128.00            C 558.00,128.00 558.00,219.00 558.00,219.00              558.00,219.00 585.00,219.00 585.00,219.00              585.00,219.00 585.00,128.00 585.00,128.00              585.00,128.00 558.00,128.00 558.00,128.00 Z            M 620.00,128.00            C 620.00,128.00 620.00,219.00 620.00,219.00              620.00,219.00 647.00,219.00 647.00,219.00              666.13,219.00 681.26,219.06 695.83,203.91              709.84,189.34 712.05,164.54 700.21,148.00              691.33,135.59 676.16,128.18 661.00,128.00              661.00,128.00 620.00,128.00 620.00,128.00 Z            M 735.00,128.00            C 735.00,128.00 735.00,219.00 735.00,219.00              735.00,219.00 806.00,219.00 806.00,219.00              806.00,219.00 806.00,197.00 806.00,197.00              806.00,197.00 761.00,197.00 761.00,197.00              761.00,197.00 761.00,183.00 761.00,183.00              761.00,183.00 800.00,183.00 800.00,183.00              800.00,183.00 800.00,162.00 800.00,162.00              800.00,162.00 761.00,162.00 761.00,162.00              761.00,162.00 761.00,150.00 761.00,150.00              761.00,150.00 806.00,150.00 806.00,150.00              806.00,150.00 806.00,128.00 806.00,128.00              806.00,128.00 735.00,128.00 735.00,128.00 Z            M 0.00,140.00            C 0.00,140.00 0.00,159.00 0.00,159.00              0.00,159.00 38.00,159.00 38.00,159.00              42.34,159.01 47.08,158.98 51.00,161.14              60.56,166.40 61.38,178.85 52.96,185.58              48.56,189.10 44.29,188.99 39.00,189.00              39.00,189.00 0.00,189.00 0.00,189.00              0.00,189.00 0.00,209.00 0.00,209.00              0.00,209.00 42.00,209.00 42.00,209.00              50.99,208.89 61.19,207.20 67.97,200.90              81.38,188.46 81.47,159.60 67.97,147.18              61.36,141.12 54.60,140.01 46.00,140.00              46.00,140.00 0.00,140.00 0.00,140.00 Z            M 139.00,172.00            C 139.00,172.00 139.00,149.00 139.00,149.00              145.30,149.00 154.43,148.23 159.90,151.56              166.82,155.76 166.81,166.32 158.96,170.23              154.08,172.67 144.62,172.00 139.00,172.00 Z            M 242.00,170.00            C 242.00,170.00 242.00,149.00 242.00,149.00              247.81,149.00 258.01,148.27 262.96,151.14              269.73,155.06 269.58,165.30 262.96,168.83              259.46,170.69 246.58,170.00 242.00,170.00 Z            M 367.00,150.30            C 372.24,149.79 376.24,150.17 381.00,152.67              400.99,163.15 396.09,193.45 374.00,196.70              359.86,198.78 347.37,189.68 347.01,175.00              346.82,167.14 347.99,161.75 354.04,156.19              358.22,152.35 361.61,151.32 367.00,150.30 Z            M 646.00,197.00            C 646.00,197.00 646.00,150.00 646.00,150.00              656.16,150.00 664.26,149.09 672.91,155.79              685.30,165.37 683.44,185.76 670.00,193.47              662.20,197.95 654.58,197.00 646.00,197.00 Z            M 58.00,232.00            C 58.00,232.00 58.00,271.00 58.00,271.00              58.00,271.00 0.00,271.00 0.00,271.00              0.00,271.00 0.00,290.00 0.00,290.00              0.00,290.00 76.00,290.00 76.00,290.00              76.00,290.00 76.00,232.00 76.00,232.00              76.00,232.00 58.00,232.00 58.00,232.00 Z            M 114.00,235.00            C 117.78,248.99 131.30,270.60 140.40,282.00              184.64,337.38 257.39,359.13 325.00,339.71              344.59,334.08 364.89,324.08 381.00,311.58              384.14,309.14 395.74,300.08 396.83,296.99              397.98,293.74 395.00,291.11 392.98,289.00              392.98,289.00 376.00,272.00 376.00,272.00              374.01,270.06 371.08,266.65 368.00,267.05              365.22,267.42 360.32,272.61 358.00,274.56              351.94,279.66 343.97,284.91 337.00,288.69              321.05,297.34 299.22,303.97 281.00,304.00              281.00,304.00 270.00,304.00 270.00,304.00              240.97,303.95 209.24,289.02 188.00,269.83              181.31,263.79 174.17,255.36 168.91,248.00              160.16,235.74 163.19,235.02 153.00,235.00              153.00,235.00 114.00,235.00 114.00,235.00 Z" />
  <path
     style="fill:#ffffff;stroke-width:0.696727"
     d="M 73.853026,113.70156 C 71.789962,111.70598 40.874383,92.585766 38.617402,91.909558 35.047621,90.840025 33.71398,91.444102 20.9018,99.933892 10.053098,107.12261 1.9614353,112.2122 1.3811817,112.2122 1.1963312,112.2122 1.04509,107.98719 1.04509,102.82329 V 93.434378 L 3.5152091,91.15312 C 4.8737746,89.898428 9.4754798,86.82401 13.74122,84.321079 18.00696,81.81815 21.594363,79.466697 21.713228,79.09563 21.832091,78.724563 17.540574,75.328731 12.176522,71.549337 6.8124699,67.769944 2.3039116,64.477911 2.157503,64.233707 2.0110944,63.989505 1.6602614,59.425838 1.3778741,54.092226 l -0.5134314,-9.697475 4.0965019,2.282512 c 2.2530761,1.255381 9.0202464,5.525414 15.0381554,9.488962 12.398,8.165636 14.520835,9.365294 16.572206,9.365294 2.265073,0 5.853756,-2.072943 22.41068,-12.945147 8.465343,-5.55882 15.555866,-9.942609 15.756726,-9.741754 0.575997,0.576002 0.542917,16.55212 -0.03867,18.677161 -0.409863,1.497563 -3.090178,3.591488 -12.35538,9.652309 -6.507592,4.256929 -11.83198,7.822935 -11.83198,7.924459 0,0.101523 3.997469,2.43323 8.883265,5.18157 4.885795,2.748341 10.386954,6.316676 12.224793,7.929634 l 3.341522,2.932651 -0.206252,9.616548 c -0.137095,6.39175 -0.439899,9.39056 -0.902985,8.94261 z"
     id="path11"
     transform="scale(0.99986048)" />
  <path
     style="fill:#ffffff;stroke-width:0.696727"
     d=""
     id="path13"
     transform="scale(0.99986048)" />
  <path
     style="fill:#ffffff;stroke-width:0.696727"
     d="m 1.04509,280.47169 v -8.70908 h 28.914156 28.914157 v -19.50835 -19.50834 h 8.012356 8.012357 v 28.21743 28.21743 H 37.971603 1.04509 Z"
     id="path15"
     transform="scale(0.99986048)" />
  <path
     style="fill:#ffffff;stroke-width:0.696727"
     d="m 254.65359,344.5866 c -33.01264,-4.32986 -61.98421,-16.61595 -87.43919,-37.08071 -7.71663,-6.20385 -20.29972,-18.81905 -26.27043,-26.33747 -5.20543,-6.55478 -13.55484,-19.41371 -17.86941,-27.5207 -3.43985,-6.46342 -7.7663,-16.25379 -7.7663,-17.57446 0,-1.03188 42.48016,-0.40038 44.33104,0.65902 0.8153,0.46666 2.98779,3.26384 4.82778,6.21597 15.79375,25.34004 41.24678,45.35425 70.74215,55.62593 24.73381,8.61348 54.81048,8.60113 80.71033,-0.0331 16.73132,-5.57774 32.53046,-14.39242 44.28812,-24.7093 5.83884,-5.12335 7.86909,-6.27512 9.75418,-5.53361 0.76639,0.30148 6.95855,6.16213 13.76035,13.02368 9.50923,9.59278 12.36689,12.88478 12.36689,14.24655 0,1.23685 -1.10324,2.8045 -3.65781,5.19755 -25.68911,24.06488 -61.26181,40.02088 -98.41264,44.1426 -8.44259,0.93667 -31.18726,0.75068 -39.36506,-0.32191 z"
     id="path17"
     transform="scale(0.99986048)" />
  <path
     style="fill:#ffffff;stroke-width:0.696727"
     d="m 113.91481,173.52415 v -44.59051 h 24.35114 c 26.46539,0 29.13817,0.27335 36.19454,3.70166 21.96909,10.6736 22.07923,43.71293 0.18256,54.76633 -6.93537,3.50097 -11.15928,4.32452 -24.32427,4.74263 l -12.01854,0.3817 v 12.79435 12.79435 h -12.19271 -12.19272 z m 45.816,-2.76667 c 3.33664,-1.88604 4.59105,-3.49031 5.60744,-7.17138 1.00039,-3.6231 -0.15969,-8.0278 -2.84671,-10.80866 -3.06685,-3.17394 -7.52853,-4.33545 -16.65376,-4.33545 h -7.53754 v 12.27342 12.27342 l 9.23163,-0.27704 c 8.16966,-0.24516 9.57298,-0.46998 12.19894,-1.95431 z"
     id="path19"
     transform="scale(0.99986048)" />
  <path
     style="fill:#ffffff;stroke-width:0.696727"
     d="m 115.30826,111.24348 c 0,-1.02961 3.56992,-9.68944 5.91944,-14.359262 13.48919,-26.810554 34.48607,-50.422268 59.92123,-67.383472 20.13114,-13.424268 44.27456,-22.6410906 68.97594,-26.3317714 8.94571,-1.336595 41.16008,-1.5715539 49.81596,-0.3633379 32.44982,4.529456 65.62017,19.8769553 90.67312,41.9532953 4.23548,3.732254 5.47515,5.241219 5.47515,6.664505 0,1.457821 -2.6403,4.475354 -12.71526,14.531965 -6.99339,6.980656 -13.39469,12.889149 -14.22511,13.129986 -1.18326,0.343166 -2.84107,-0.672215 -7.664,-4.69407 -22.5544,-18.808192 -42.80077,-27.794247 -70.20185,-31.158045 -9.35897,-1.148923 -28.85803,-0.967962 -36.28092,0.336705 -13.2474,2.328396 -24.12254,5.956849 -36.5592,12.197858 -22.63857,11.360561 -38.73699,25.747073 -53.50841,47.818304 -2.33871,3.49445 -4.82036,6.61262 -5.5148,6.92928 -1.40924,0.6426 -44.11129,1.3474 -44.11129,0.72806 z"
     id="path21"
     transform="scale(0.99986048)" />
  <path
     style="fill:#ffffff;stroke-width:0.696727"
     d="m 217.03035,173.52415 v -44.59051 h 24.6387 c 13.5588,0 26.32637,0.31497 28.39162,0.70041 15.57152,2.90611 26.07425,17.85935 23.62616,33.63767 -1.48429,9.56649 -6.98637,17.54019 -14.35123,20.79802 -1.69591,0.75018 -3.08322,1.58444 -3.08289,1.85391 3.2e-4,0.26947 4.70303,7.5443 10.45047,16.16629 l 10.44989,15.67635 -10.94791,0.19263 c -6.02135,0.10595 -12.55253,-0.14048 -14.51372,-0.54762 l -3.56582,-0.74027 -9.32766,-13.21272 c -5.13022,-7.26699 -9.65068,-13.23141 -10.04547,-13.25425 -0.39479,-0.0228 -2.20705,-0.28667 -4.02725,-0.58627 l -3.30945,-0.54474 v 14.52081 14.5208 h -12.19272 -12.19272 z m 45.4838,-3.7422 c 4.02811,-1.71636 5.63067,-4.14769 5.92924,-8.99557 0.22553,-3.66182 0.0145,-4.70347 -1.36423,-6.73291 -3.02258,-4.44921 -5.31339,-5.23318 -16.08338,-5.50411 l -9.57999,-0.241 v 11.21444 11.21444 h 9.42818 c 6.43217,0 10.14064,-0.30356 11.67018,-0.95529 z"
     id="path23"
     transform="scale(0.99986048)" />
  <path
     style="fill:#ffffff;stroke-width:0.696727"
     d="m 359.16259,219.14855 c -13.41534,-2.74113 -23.79325,-9.37025 -30.59909,-19.54584 -15.23622,-22.78003 -6.57873,-55.28542 17.84203,-66.9897 7.17836,-3.44042 20.3319,-6.04841 27.73669,-5.49944 26.6562,1.97623 44.93886,20.83781 44.93886,46.36185 0,12.70429 -4.35837,23.26928 -13.24144,32.09816 -8.14668,8.09698 -14.83338,11.47633 -26.85692,13.57306 -7.23467,1.26163 -13.65197,1.26225 -19.82013,0.002 z m 19.01924,-22.63961 c 11.11318,-3.43251 18.14227,-15.55958 15.84643,-27.33933 -1.62852,-8.35572 -6.2382,-14.27761 -13.88025,-17.83145 -5.22108,-2.428 -13.77357,-2.52669 -19.64736,-0.22674 -4.52223,1.77074 -9.65453,6.38455 -11.81685,10.62306 -3.1459,6.16647 -3.13612,17.43205 0.0205,23.61956 5.25649,10.30356 17.38014,14.8914 29.47752,11.1549 z"
     id="path25"
     transform="scale(0.99986048)" />
  <path
     style="fill:#ffffff;stroke-width:0.696727"
     d="m 474.46513,217.62321 c -1.95937,-0.25095 -2.38125,-0.90134 -6.47636,-9.9841 -3.51156,-7.78848 -12.24129,-29.5002 -31.29528,-77.83456 -0.26719,-0.67778 2.26107,-0.85263 11.40139,-0.78847 6.45959,0.0453 12.65954,0.28048 13.77767,0.52254 1.79624,0.38887 2.40953,1.29193 5.26716,7.75574 1.77882,4.0236 6.47895,16.65591 10.44475,28.0718 3.96579,11.41589 7.42109,20.50817 7.67844,20.20507 0.53742,-0.63297 12.48844,-33.36954 16.73402,-45.83832 1.65193,-4.85154 3.45037,-8.87248 4.28481,-9.57999 1.25344,-1.06278 3.04738,-1.21928 13.97645,-1.21928 9.75521,0 12.4598,0.19332 12.18416,0.87091 -0.19486,0.479 -3.02107,7.76851 -6.28049,16.1989 -12.08836,31.26625 -19.5378,49.75853 -24.32055,60.37264 -4.5295,10.05211 -5.07682,10.93766 -6.99761,11.32181 -2.19118,0.43824 -16.79159,0.38473 -20.37856,-0.0747 z"
     id="path27"
     transform="scale(0.99986048)" />
  <path
     style="fill:#ffffff;stroke-width:0.696727"
     d="m 559.12314,173.52415 v -44.59051 h 12.54108 12.54108 v 44.59051 44.59051 h -12.54108 -12.54108 z"
     id="path29"
     transform="scale(0.99986048)" />
  <path
     style="fill:#ffffff;stroke-width:0.696727"
     d="M 621.13182,173.53877 V 128.837 l 24.21125,0.24763 c 24.12119,0.24671 24.23198,0.2546 29.78506,2.12067 15.3301,5.15159 26.9873,16.9333 30.59663,30.92343 1.41516,5.48535 1.42823,16.13005 0.0264,21.51204 -4.19245,16.09592 -16.06989,28.11029 -32.14611,32.51669 -4.93668,1.35312 -7.63619,1.51976 -28.95871,1.78766 l -23.51452,0.29543 z m 45.1207,22.7351 c 6.75129,-2.48967 12.09904,-7.84295 14.54053,-14.55553 1.41377,-3.88698 1.40096,-12.53602 -0.0244,-16.45749 -2.3148,-6.36859 -7.56457,-11.49332 -14.54255,-14.19618 -2.66058,-1.03055 -5.93397,-1.50427 -12.17397,-1.76182 l -8.5349,-0.35226 v 24.57197 24.57198 l 8.88326,-0.36294 c 5.49387,-0.22446 10.01599,-0.78065 11.85201,-1.45773 z"
     id="path31"
     transform="scale(0.99986048)" />
  <path
     style="fill:#ffffff;stroke-width:0.696727"
     d="m 736.09171,173.52415 v -44.59051 h 34.48797 34.48797 v 10.10254 10.10254 H 782.7724 760.47715 v 6.96726 6.96727 h 19.50834 19.50835 v 9.40581 9.40581 h -19.50835 -19.50834 v 8.01236 8.01235 h 22.29525 22.29525 v 10.10254 10.10254 h -34.48797 -34.48797 z"
     id="path33"
     transform="scale(0.99986048)" />
  <path
     style="fill:#ffffff;stroke-width:0.696727"
     d="m 736.09171,173.52415 v -44.59051 h 34.48797 34.48797 v 10.10254 10.10254 H 782.7724 760.47715 v 6.96726 6.96727 h 19.50834 19.50835 v 9.40581 9.40581 h -19.50835 -19.50834 v 8.01236 8.01235 h 22.29525 22.29525 v 10.10254 10.10254 h -34.48797 -34.48797 z"
     id="path35"
     transform="scale(0.99986048)" />
  <path
     style="fill:#ffffff;stroke-width:0.696727"
     d="m 1.0450873,199.021 v -9.47214 H 24.059445 c 25.375197,0 26.01437,-0.0919 30.544492,-4.38985 6.406771,-6.07848 6.639065,-15.71915 0.52605,-21.83217 -4.794241,-4.79424 -6.909974,-5.13068 -32.264466,-5.13068 H 1.0450873 v -8.75337 -8.75337 l 26.9981577,0.23133 c 26.280444,0.22519 27.104596,0.27398 31.002009,1.8353 11.101079,4.44713 17.943039,16.36126 17.943039,31.24483 0,13.75026 -5.815793,25.37795 -14.921463,29.83294 -7.789945,3.81126 -9.337602,3.99727 -36.113765,4.34026 l -24.9079777,0.31906 z"
     id="path20"
     transform="scale(0.99986048)" />
</svg>
